<svg width="40" height="32" viewBox="0 0 40 32" fill="none" xmlns="http://www.w3.org/2000/svg"><path d="M7.895 11.553v10.894a6.053 6.053 0 0 0 6.052 6.053h14.527a6.054 6.054 0 0 0 5.549-3.632h-6.155a5.447 5.447 0 0 1-5.447-5.447V14.58a5.447 5.447 0 0 1 5.447-5.447h6.155a6.054 6.054 0 0 0-5.55-3.632H13.948a6.053 6.053 0 0 0-6.052 6.053z" fill="#000"/><path fill-rule="evenodd" clip-rule="evenodd" d="M24.842 14.579v4.842a3.026 3.026 0 0 0 3.026 3.026h6.053a3.026 3.026 0 0 0 3.026-3.026V14.58a3.026 3.026 0 0 0-3.026-3.026h-6.053a3.026 3.026 0 0 0-3.026 3.026zM30.895 17a1.816 1.816 0 1 1-3.632 0 1.816 1.816 0 0 1 3.631 0z" fill="#000"/></svg>