<svg width="28" height="28" viewBox="0 0 28 28" xmlns="http://www.w3.org/2000/svg"><path opacity=".82" fill-rule="evenodd" clip-rule="evenodd" d="M7.058 7.058a1 1 0 0 1 1.414 0l2.7 2.7a1 1 0 0 1-1.414 1.414l-2.7-2.7a1 1 0 0 1 0-1.414z" fill="currentColor"/><path opacity=".65" fill-rule="evenodd" clip-rule="evenodd" d="M4.182 14a1 1 0 0 1 1-1H9a1 1 0 1 1 0 2H5.182a1 1 0 0 1-1-1z" fill="currentColor"/><path opacity=".6" fill-rule="evenodd" clip-rule="evenodd" d="M7.058 20.942a1 1 0 0 1 0-1.414l2.7-2.7a1 1 0 0 1 1.414 1.414l-2.7 2.7a1 1 0 0 1-1.414 0z" fill="currentColor"/><path opacity=".5" fill-rule="evenodd" clip-rule="evenodd" d="M14 18a1 1 0 0 1 1 1v3.818a1 1 0 1 1-2 0V19a1 1 0 0 1 1-1zm2.829-1.172a1 1 0 0 1 1.414 0l2.7 2.7a1 1 0 0 1-1.414 1.414l-2.7-2.7a1 1 0 0 1 0-1.414zM18 14a1 1 0 0 1 1-1h3.818a1 1 0 1 1 0 2H19a1 1 0 0 1-1-1zm-1.171-2.828a1 1 0 0 1 0-1.415l2.7-2.7a1 1 0 0 1 1.414 1.415l-2.7 2.7a1 1 0 0 1-1.414 0z" fill="currentColor"/><path fill-rule="evenodd" clip-rule="evenodd" d="M14 4.182a1 1 0 0 1 1 1V9a1 1 0 1 1-2 0V5.182a1 1 0 0 1 1-1z" fill="currentColor"/></svg>