<svg width="13" height="20" viewBox="0 0 13 20" fill="none" xmlns="http://www.w3.org/2000/svg">
<path d="M6.5 15.2051C6.26562 15.2051 6.0752 15.1318 5.92871 14.9854C5.78711 14.8389 5.71631 14.646 5.71631 14.4067V7.83691L5.8042 5.75684L6.26562 6.02051L4.36865 8.18848L3.24805 9.30176C3.17969 9.37012 3.09668 9.42627 2.99902 9.47021C2.90625 9.51416 2.80371 9.53613 2.69141 9.53613C2.47656 9.53613 2.29834 9.46533 2.15674 9.32373C2.01514 9.17725 1.94434 8.99414 1.94434 8.77441C1.94434 8.56934 2.0249 8.38135 2.18604 8.21045L5.92139 4.46777C6.07764 4.30664 6.27051 4.22607 6.5 4.22607C6.72949 4.22607 6.92236 4.30664 7.07861 4.46777L10.814 8.21045C10.9751 8.38135 11.0557 8.56934 11.0557 8.77441C11.0557 8.99414 10.9849 9.17725 10.8433 9.32373C10.7017 9.46533 10.5234 9.53613 10.3086 9.53613C10.1963 9.53613 10.0913 9.51416 9.99365 9.47021C9.90088 9.42627 9.82031 9.37012 9.75195 9.30176L8.62402 8.18848L6.72705 6.02051L7.1958 5.75684L7.28369 7.83691V14.4067C7.28369 14.646 7.21045 14.8389 7.06396 14.9854C6.91748 15.1318 6.72949 15.2051 6.5 15.2051Z" fill="black"/>
</svg>
