<svg width="10" height="16" viewBox="0 0 10 16" fill="none" xmlns="http://www.w3.org/2000/svg">
<path d="M5 12.1641C4.8125 12.1641 4.66016 12.1055 4.54297 11.9883C4.42969 11.8711 4.37305 11.7168 4.37305 11.5254V6.26953L4.44336 4.60547L4.8125 4.81641L3.29492 6.55078L2.39844 7.44141C2.34375 7.49609 2.27734 7.54102 2.19922 7.57617C2.125 7.61133 2.04297 7.62891 1.95312 7.62891C1.78125 7.62891 1.63867 7.57227 1.52539 7.45898C1.41211 7.3418 1.35547 7.19531 1.35547 7.01953C1.35547 6.85547 1.41992 6.70508 1.54883 6.56836L4.53711 3.57422C4.66211 3.44531 4.81641 3.38086 5 3.38086C5.18359 3.38086 5.33789 3.44531 5.46289 3.57422L8.45117 6.56836C8.58008 6.70508 8.64453 6.85547 8.64453 7.01953C8.64453 7.19531 8.58789 7.3418 8.47461 7.45898C8.36133 7.57227 8.21875 7.62891 8.04688 7.62891C7.95703 7.62891 7.87305 7.61133 7.79492 7.57617C7.7207 7.54102 7.65625 7.49609 7.60156 7.44141L6.69922 6.55078L5.18164 4.81641L5.55664 4.60547L5.62695 6.26953V11.5254C5.62695 11.7168 5.56836 11.8711 5.45117 11.9883C5.33398 12.1055 5.18359 12.1641 5 12.1641Z" fill="black"/>
</svg>
