<svg width="13" height="22" viewBox="0 0 13 22" fill="none" xmlns="http://www.w3.org/2000/svg">
<path d="M6.5 17.2266C6.25 17.2266 6.04427 17.1458 5.88281 16.9844C5.72656 16.8229 5.64844 16.612 5.64844 16.3516V9.39062L5.75 7.15625L6.24219 7.44531L4.24219 9.73438L3.03906 10.9297C2.96615 11.0026 2.8776 11.0651 2.77344 11.1172C2.67448 11.1641 2.5625 11.1875 2.4375 11.1875C2.20833 11.1875 2.01562 11.1094 1.85938 10.9531C1.70833 10.7969 1.63281 10.6016 1.63281 10.3672C1.63281 10.1432 1.72135 9.9401 1.89844 9.75781L5.875 5.76562C6.04688 5.58854 6.25521 5.5 6.5 5.5C6.74479 5.5 6.95312 5.58854 7.125 5.76562L11.1094 9.75781C11.2812 9.9401 11.3672 10.1432 11.3672 10.3672C11.3672 10.6016 11.2891 10.7969 11.1328 10.9531C10.9818 11.1094 10.7917 11.1875 10.5625 11.1875C10.4375 11.1875 10.3255 11.1641 10.2266 11.1172C10.1276 11.0651 10.0391 11.0026 9.96094 10.9297L8.75781 9.73438L6.75 7.44531L7.25 7.15625L7.35156 9.39062V16.3516C7.35156 16.612 7.27083 16.8229 7.10938 16.9844C6.95312 17.1458 6.75 17.2266 6.5 17.2266Z" fill="black"/>
</svg>
