<svg width="18" height="28" viewBox="0 0 18 28" fill="none" xmlns="http://www.w3.org/2000/svg">
<path d="M9 6.1875C9.34375 6.1875 9.62305 6.2985 9.83789 6.52051C10.0599 6.74251 10.1709 7.03255 10.1709 7.39062V16.9619L10.0312 20.0342L9.34375 19.6367L12.1045 16.4893L13.7588 14.8457C13.8662 14.7454 13.988 14.6631 14.124 14.5986C14.2601 14.527 14.4141 14.4912 14.5859 14.4912C14.901 14.4912 15.1624 14.5986 15.3701 14.8135C15.585 15.0212 15.6924 15.2897 15.6924 15.6191C15.6924 15.9271 15.5742 16.2064 15.3379 16.457L9.85938 21.9463C9.62305 22.1898 9.33659 22.3115 9 22.3115C8.66341 22.3115 8.37695 22.1898 8.14062 21.9463L2.67285 16.457C2.42936 16.2064 2.30762 15.9271 2.30762 15.6191C2.30762 15.2897 2.41146 15.0212 2.61914 14.8135C2.83398 14.5986 3.09896 14.4912 3.41406 14.4912C3.58594 14.4912 3.73991 14.527 3.87598 14.5986C4.01921 14.6631 4.14095 14.7454 4.24121 14.8457L5.89551 16.4893L8.64551 19.6367L7.96875 20.0342L7.8291 16.9619V7.39062C7.8291 7.03255 7.93652 6.74251 8.15137 6.52051C8.37337 6.2985 8.65625 6.1875 9 6.1875Z" fill="black"/>
</svg>
