<svg width="10" height="16" viewBox="0 0 10 16" fill="none" xmlns="http://www.w3.org/2000/svg">
<path d="M5 3.38086C5.18359 3.38086 5.33398 3.43945 5.45117 3.55664C5.56836 3.67383 5.62695 3.82812 5.62695 4.01953V9.27539L5.55664 10.9395L5.18164 10.7285L6.69922 8.99414L7.60156 8.10352C7.65625 8.04883 7.7207 8.00391 7.79492 7.96875C7.87305 7.93359 7.95703 7.91602 8.04688 7.91602C8.21875 7.91602 8.36133 7.97461 8.47461 8.0918C8.58789 8.20508 8.64453 8.34961 8.64453 8.52539C8.64453 8.68945 8.58008 8.83984 8.45117 8.97656L5.46289 11.9707C5.33789 12.0996 5.18359 12.1641 5 12.1641C4.81641 12.1641 4.66211 12.0996 4.53711 11.9707L1.54883 8.97656C1.41992 8.83984 1.35547 8.68945 1.35547 8.52539C1.35547 8.34961 1.41211 8.20508 1.52539 8.0918C1.63867 7.97461 1.78125 7.91602 1.95312 7.91602C2.04297 7.91602 2.125 7.93359 2.19922 7.96875C2.27734 8.00391 2.34375 8.04883 2.39844 8.10352L3.29492 8.99414L4.8125 10.7285L4.44336 10.9395L4.37305 9.27539V4.01953C4.37305 3.82812 4.42969 3.67383 4.54297 3.55664C4.66016 3.43945 4.8125 3.38086 5 3.38086Z" fill="black"/>
</svg>
