<svg width="10" height="18" viewBox="0 0 10 18" fill="none" xmlns="http://www.w3.org/2000/svg">
<path d="M5 4.69434C5.14811 4.69434 5.27083 4.743 5.36816 4.84033C5.46549 4.93343 5.51416 5.05404 5.51416 5.20215V11.5308L5.45068 13.0923L5.12061 12.978L7.05029 10.8389L7.95801 9.95654C8.00033 9.91423 8.05322 9.88037 8.1167 9.85498C8.18018 9.82959 8.24577 9.81689 8.31348 9.81689C8.45736 9.81689 8.57585 9.86556 8.66895 9.96289C8.76204 10.0602 8.80859 10.1787 8.80859 10.3184C8.80859 10.4538 8.7557 10.5786 8.6499 10.6929L5.38086 13.9683C5.27083 14.0868 5.14388 14.146 5 14.146C4.85612 14.146 4.72917 14.0868 4.61914 13.9683L1.3501 10.6929C1.2443 10.5786 1.19141 10.4538 1.19141 10.3184C1.19141 10.1787 1.23796 10.0602 1.33105 9.96289C1.42415 9.86556 1.54264 9.81689 1.68652 9.81689C1.75423 9.81689 1.81982 9.82959 1.8833 9.85498C1.94678 9.88037 1.99967 9.91423 2.04199 9.95654L2.94971 10.8389L4.87305 12.978L4.54932 13.0923L4.48584 11.5308V5.20215C4.48584 5.05404 4.53451 4.93343 4.63184 4.84033C4.72917 4.743 4.85189 4.69434 5 4.69434Z" fill="black"/>
</svg>
