<svg width="11" height="18" viewBox="0 0 11 18" fill="none" xmlns="http://www.w3.org/2000/svg">
<path d="M5.5 14.1572C5.34049 14.1572 5.20833 14.1048 5.10352 14C4.9987 13.8997 4.94629 13.7699 4.94629 13.6104V6.79492L5.01465 5.11328L5.36328 5.23633L3.29199 7.54004L2.31445 8.49023C2.26888 8.53581 2.21191 8.57227 2.14355 8.59961C2.0752 8.62695 2.00456 8.64062 1.93164 8.64062C1.77669 8.64062 1.64909 8.58822 1.54883 8.4834C1.44857 8.37858 1.39844 8.25098 1.39844 8.10059C1.39844 7.95475 1.4554 7.82031 1.56934 7.69727L5.08984 4.16992C5.20833 4.04232 5.34505 3.97852 5.5 3.97852C5.65495 3.97852 5.79167 4.04232 5.91016 4.16992L9.43066 7.69727C9.5446 7.82031 9.60156 7.95475 9.60156 8.10059C9.60156 8.25098 9.55143 8.37858 9.45117 8.4834C9.35091 8.58822 9.22331 8.64062 9.06836 8.64062C8.99544 8.64062 8.9248 8.62695 8.85645 8.59961C8.78809 8.57227 8.73112 8.53581 8.68555 8.49023L7.70801 7.54004L5.62988 5.23633L5.98535 5.11328L6.05371 6.79492V13.6104C6.05371 13.7699 6.0013 13.8997 5.89648 14C5.79167 14.1048 5.65951 14.1572 5.5 14.1572Z" fill="black"/>
</svg>
