<svg width="10" height="18" viewBox="0 0 10 18" fill="none" xmlns="http://www.w3.org/2000/svg">
<path d="M5 4.67529C5.17773 4.67529 5.32373 4.73242 5.43799 4.84668C5.55225 4.96094 5.60938 5.10905 5.60938 5.29102V11.2515L5.53955 12.9526L5.16504 12.7686L6.92969 10.7881L7.87549 9.85498C7.9305 9.8042 7.99398 9.76188 8.06592 9.72803C8.13786 9.69417 8.21826 9.67725 8.30713 9.67725C8.47217 9.67725 8.6097 9.73438 8.71973 9.84863C8.82975 9.95866 8.88477 10.0983 8.88477 10.2676C8.88477 10.4326 8.8234 10.5807 8.70068 10.7119L5.45068 13.9683C5.32373 14.0994 5.1735 14.165 5 14.165C4.82227 14.165 4.67204 14.0994 4.54932 13.9683L1.29932 10.7119C1.17236 10.5807 1.10889 10.4326 1.10889 10.2676C1.10889 10.0983 1.1639 9.95866 1.27393 9.84863C1.38395 9.73438 1.5236 9.67725 1.69287 9.67725C1.77751 9.67725 1.85579 9.69417 1.92773 9.72803C2.00391 9.76188 2.06738 9.8042 2.11816 9.85498L3.07031 10.7881L4.82861 12.7686L4.46045 12.9526L4.38428 11.2515V5.29102C4.38428 5.10905 4.44141 4.96094 4.55566 4.84668C4.67415 4.73242 4.82227 4.67529 5 4.67529Z" fill="black"/>
</svg>
