<svg width="14" height="22" viewBox="0 0 14 22" fill="none" xmlns="http://www.w3.org/2000/svg">
<path d="M7 4.83105C7.19368 4.83105 7.35417 4.89469 7.48145 5.02197C7.60872 5.14372 7.67236 5.30143 7.67236 5.49512V13.771L7.58936 15.813L7.15771 15.6636L9.68115 12.8662L10.8682 11.7124C10.9235 11.6571 10.9927 11.6128 11.0757 11.5796C11.1587 11.5464 11.2445 11.5298 11.333 11.5298C11.5212 11.5298 11.6761 11.5934 11.7979 11.7207C11.9196 11.848 11.9805 12.0029 11.9805 12.1855C11.9805 12.3626 11.9113 12.5259 11.7729 12.6753L7.49805 16.9585C7.35417 17.1134 7.18815 17.1909 7 17.1909C6.81185 17.1909 6.64583 17.1134 6.50195 16.9585L2.22705 12.6753C2.0887 12.5259 2.01953 12.3626 2.01953 12.1855C2.01953 12.0029 2.0804 11.848 2.20215 11.7207C2.32389 11.5934 2.47884 11.5298 2.66699 11.5298C2.75553 11.5298 2.84131 11.5464 2.92432 11.5796C3.00732 11.6128 3.0765 11.6571 3.13184 11.7124L4.31885 12.8662L6.83398 15.6636L6.41064 15.813L6.32764 13.771V5.49512C6.32764 5.30143 6.39128 5.14372 6.51855 5.02197C6.64583 4.89469 6.80632 4.83105 7 4.83105Z" fill="black"/>
</svg>
