<svg width="10" height="16" viewBox="0 0 10 16" fill="none" xmlns="http://www.w3.org/2000/svg">
<path d="M5 3.39258C5.16406 3.39258 5.29883 3.44531 5.4043 3.55078C5.50977 3.65625 5.5625 3.79297 5.5625 3.96094V9.46289L5.49805 11.0332L5.15234 10.8633L6.78125 9.03516L7.6543 8.17383C7.70508 8.12695 7.76367 8.08789 7.83008 8.05664C7.89648 8.02539 7.9707 8.00977 8.05273 8.00977C8.20508 8.00977 8.33203 8.0625 8.43359 8.16797C8.53516 8.26953 8.58594 8.39844 8.58594 8.55469C8.58594 8.70703 8.5293 8.84375 8.41602 8.96484L5.41602 11.9707C5.29883 12.0918 5.16016 12.1523 5 12.1523C4.83594 12.1523 4.69727 12.0918 4.58398 11.9707L1.58398 8.96484C1.4668 8.84375 1.4082 8.70703 1.4082 8.55469C1.4082 8.39844 1.45898 8.26953 1.56055 8.16797C1.66211 8.0625 1.79102 8.00977 1.94727 8.00977C2.02539 8.00977 2.09766 8.02539 2.16406 8.05664C2.23438 8.08789 2.29297 8.12695 2.33984 8.17383L3.21875 9.03516L4.8418 10.8633L4.50195 11.0332L4.43164 9.46289V3.96094C4.43164 3.79297 4.48438 3.65625 4.58984 3.55078C4.69922 3.44531 4.83594 3.39258 5 3.39258Z" fill="black"/>
</svg>
