<svg width="23" height="34" viewBox="0 0 23 34" fill="none" xmlns="http://www.w3.org/2000/svg">
<path d="M11.5 6.91602C11.8828 6.91602 12.1973 7.03906 12.4434 7.28516C12.6895 7.53125 12.8125 7.85026 12.8125 8.24219V21.0801L12.6621 24.7441L11.8555 24.3477L15.6562 20.082L17.6934 18.0723C17.8118 17.9629 17.9486 17.8717 18.1035 17.7988C18.2585 17.7259 18.4316 17.6895 18.623 17.6895C18.9785 17.6895 19.2747 17.8125 19.5117 18.0586C19.7487 18.2956 19.8672 18.5964 19.8672 18.9609C19.8672 19.3164 19.735 19.6354 19.4707 19.918L12.4707 26.9316C12.1973 27.2142 11.8737 27.3555 11.5 27.3555C11.1172 27.3555 10.7936 27.2142 10.5293 26.9316L3.5293 19.918C3.25586 19.6354 3.11914 19.3164 3.11914 18.9609C3.11914 18.5964 3.23763 18.2956 3.47461 18.0586C3.71159 17.8125 4.01237 17.6895 4.37695 17.6895C4.55924 17.6895 4.72786 17.7259 4.88281 17.7988C5.04688 17.8717 5.18359 17.9629 5.29297 18.0723L7.34375 20.082L11.1309 24.3477L10.3379 24.7441L10.1738 21.0801V8.24219C10.1738 7.85026 10.2969 7.53125 10.543 7.28516C10.7982 7.03906 11.1172 6.91602 11.5 6.91602Z" fill="black"/>
</svg>
