<svg width="8" height="13" viewBox="0 0 8 13" fill="none" xmlns="http://www.w3.org/2000/svg">
<path d="M4 2.09912C4.16829 2.09912 4.30615 2.15283 4.41357 2.26025C4.521 2.36768 4.57471 2.50911 4.57471 2.68457V7.50244L4.51025 9.02783L4.1665 8.83447L5.55762 7.24463L6.38477 6.42822C6.4349 6.37809 6.49398 6.33691 6.56201 6.30469C6.63363 6.27246 6.71061 6.25635 6.79297 6.25635C6.95052 6.25635 7.08122 6.31006 7.18506 6.41748C7.2889 6.52132 7.34082 6.65381 7.34082 6.81494C7.34082 6.96533 7.28174 7.10319 7.16357 7.22852L4.42432 9.97314C4.30973 10.0913 4.16829 10.1504 4 10.1504C3.83171 10.1504 3.69027 10.0913 3.57568 9.97314L0.836426 7.22852C0.718262 7.10319 0.65918 6.96533 0.65918 6.81494C0.65918 6.65381 0.7111 6.52132 0.814941 6.41748C0.918783 6.31006 1.04948 6.25635 1.20703 6.25635C1.28939 6.25635 1.36458 6.27246 1.43262 6.30469C1.50423 6.33691 1.5651 6.37809 1.61523 6.42822L2.43701 7.24463L3.82812 8.83447L3.48975 9.02783L3.42529 7.50244V2.68457C3.42529 2.50911 3.47721 2.36768 3.58105 2.26025C3.68848 2.15283 3.82812 2.09912 4 2.09912Z" fill="black"/>
</svg>
