<svg width="12" height="18" viewBox="0 0 12 18" fill="none" xmlns="http://www.w3.org/2000/svg">
<path d="M6 14.1777C5.80859 14.1777 5.64909 14.1162 5.52148 13.9932C5.39844 13.8701 5.33691 13.7106 5.33691 13.5146V7.0957L5.41895 5.26367L5.81543 5.46191L3.92188 7.59473L2.89648 8.59961C2.8418 8.6543 2.77344 8.69987 2.69141 8.73633C2.61393 8.77279 2.52962 8.79102 2.43848 8.79102C2.25618 8.79102 2.10579 8.72949 1.9873 8.60645C1.86882 8.4834 1.80957 8.33301 1.80957 8.15527C1.80957 7.97754 1.87793 7.81803 2.01465 7.67676L5.51465 4.16992C5.64681 4.02865 5.80859 3.95801 6 3.95801C6.18685 3.95801 6.34863 4.02865 6.48535 4.16992L9.98535 7.67676C10.1175 7.81803 10.1836 7.97754 10.1836 8.15527C10.1836 8.33301 10.1243 8.4834 10.0059 8.60645C9.88737 8.72949 9.73926 8.79102 9.56152 8.79102C9.46582 8.79102 9.37923 8.77279 9.30176 8.73633C9.22428 8.69987 9.15592 8.6543 9.09668 8.59961L8.07812 7.59473L6.17773 5.46191L6.58105 5.26367L6.65625 7.0957V13.5146C6.65625 13.7106 6.59473 13.8701 6.47168 13.9932C6.34863 14.1162 6.19141 14.1777 6 14.1777Z" fill="black"/>
</svg>
