<svg width="13" height="22" viewBox="0 0 13 22" fill="none" xmlns="http://www.w3.org/2000/svg">
<path d="M6.5 5.5C6.75 5.5 6.95312 5.58073 7.10938 5.74219C7.27083 5.90365 7.35156 6.11458 7.35156 6.375V13.3359L7.25 15.5703L6.75 15.2812L8.75781 12.9922L9.96094 11.7969C10.0391 11.724 10.1276 11.6641 10.2266 11.6172C10.3255 11.5651 10.4375 11.5391 10.5625 11.5391C10.7917 11.5391 10.9818 11.6172 11.1328 11.7734C11.2891 11.9245 11.3672 12.1198 11.3672 12.3594C11.3672 12.5833 11.2812 12.7865 11.1094 12.9688L7.125 16.9609C6.95312 17.138 6.74479 17.2266 6.5 17.2266C6.25521 17.2266 6.04688 17.138 5.875 16.9609L1.89844 12.9688C1.72135 12.7865 1.63281 12.5833 1.63281 12.3594C1.63281 12.1198 1.70833 11.9245 1.85938 11.7734C2.01562 11.6172 2.20833 11.5391 2.4375 11.5391C2.5625 11.5391 2.67448 11.5651 2.77344 11.6172C2.8776 11.6641 2.96615 11.724 3.03906 11.7969L4.24219 12.9922L6.24219 15.2812L5.75 15.5703L5.64844 13.3359V6.375C5.64844 6.11458 5.72656 5.90365 5.88281 5.74219C6.04427 5.58073 6.25 5.5 6.5 5.5Z" fill="black"/>
</svg>
