<svg width="18" height="28" viewBox="0 0 18 28" fill="none" xmlns="http://www.w3.org/2000/svg">
<path d="M9 6.25195C9.25065 6.25195 9.45833 6.33431 9.62305 6.49902C9.78776 6.65658 9.87012 6.86068 9.87012 7.11133V17.8213L9.7627 20.4639L9.2041 20.2705L12.4697 16.6504L14.0059 15.1572C14.0775 15.0856 14.167 15.0283 14.2744 14.9854C14.3818 14.9424 14.4928 14.9209 14.6074 14.9209C14.8509 14.9209 15.0514 15.0033 15.209 15.168C15.3665 15.3327 15.4453 15.5332 15.4453 15.7695C15.4453 15.9987 15.3558 16.21 15.1768 16.4033L9.64453 21.9463C9.45833 22.1468 9.24349 22.2471 9 22.2471C8.75651 22.2471 8.54167 22.1468 8.35547 21.9463L2.82324 16.4033C2.64421 16.21 2.55469 15.9987 2.55469 15.7695C2.55469 15.5332 2.63346 15.3327 2.79102 15.168C2.94857 15.0033 3.14909 14.9209 3.39258 14.9209C3.50716 14.9209 3.61816 14.9424 3.72559 14.9854C3.83301 15.0283 3.92253 15.0856 3.99414 15.1572L5.53027 16.6504L8.78516 20.2705L8.2373 20.4639L8.12988 17.8213V7.11133C8.12988 6.86068 8.21224 6.65658 8.37695 6.49902C8.54167 6.33431 8.74935 6.25195 9 6.25195Z" fill="black"/>
</svg>
