<svg width="14" height="22" viewBox="0 0 14 22" fill="none" xmlns="http://www.w3.org/2000/svg">
<path d="M7 17.2158C6.76758 17.2158 6.57389 17.1411 6.41895 16.9917C6.26953 16.8423 6.19482 16.6486 6.19482 16.4106V8.61621L6.29443 6.3916L6.77588 6.63232L4.47656 9.22217L3.23145 10.4424C3.16504 10.5088 3.08203 10.5641 2.98242 10.6084C2.88835 10.6527 2.78597 10.6748 2.67529 10.6748C2.45394 10.6748 2.27132 10.6001 2.12744 10.4507C1.98356 10.3013 1.91162 10.1187 1.91162 9.90283C1.91162 9.68701 1.99463 9.49333 2.16064 9.32178L6.41064 5.06348C6.57113 4.89193 6.76758 4.80615 7 4.80615C7.22689 4.80615 7.42334 4.89193 7.58936 5.06348L11.8394 9.32178C11.9998 9.49333 12.0801 9.68701 12.0801 9.90283C12.0801 10.1187 12.0081 10.3013 11.8643 10.4507C11.7204 10.6001 11.5405 10.6748 11.3247 10.6748C11.2085 10.6748 11.1034 10.6527 11.0093 10.6084C10.9152 10.5641 10.8322 10.5088 10.7603 10.4424L9.52344 9.22217L7.21582 6.63232L7.70557 6.3916L7.79688 8.61621V16.4106C7.79688 16.6486 7.72217 16.8423 7.57275 16.9917C7.42334 17.1411 7.23242 17.2158 7 17.2158Z" fill="black"/>
</svg>
