<svg width="16" height="24" viewBox="0 0 16 24" fill="none" xmlns="http://www.w3.org/2000/svg">
<path d="M8 4.6543C8.27344 4.6543 8.49805 4.74219 8.67383 4.91797C8.84961 5.09375 8.9375 5.32161 8.9375 5.60156V14.7715L8.83008 17.3887L8.25391 17.1055L10.9688 14.0586L12.4238 12.623C12.5085 12.5449 12.6061 12.4798 12.7168 12.4277C12.8275 12.3757 12.9512 12.3496 13.0879 12.3496C13.3418 12.3496 13.5534 12.4375 13.7227 12.6133C13.8919 12.7826 13.9766 12.9974 13.9766 13.2578C13.9766 13.5117 13.8822 13.7396 13.6934 13.9414L8.69336 18.9512C8.49805 19.153 8.26693 19.2539 8 19.2539C7.72656 19.2539 7.49544 19.153 7.30664 18.9512L2.30664 13.9414C2.11133 13.7396 2.01367 13.5117 2.01367 13.2578C2.01367 12.9974 2.09831 12.7826 2.26758 12.6133C2.43685 12.4375 2.65169 12.3496 2.91211 12.3496C3.04232 12.3496 3.16276 12.3757 3.27344 12.4277C3.39062 12.4798 3.48828 12.5449 3.56641 12.623L5.03125 14.0586L7.73633 17.1055L7.16992 17.3887L7.05273 14.7715V5.60156C7.05273 5.32161 7.14062 5.09375 7.31641 4.91797C7.4987 4.74219 7.72656 4.6543 8 4.6543Z" fill="black"/>
</svg>
