<svg width="10" height="16" viewBox="0 0 10 16" fill="none" xmlns="http://www.w3.org/2000/svg">
<path d="M5 12.1523C4.83594 12.1523 4.69922 12.0996 4.58984 11.9941C4.48438 11.8887 4.43164 11.752 4.43164 11.584V6.08203L4.50195 4.51172L4.8418 4.68164L3.21875 6.50977L2.33984 7.37109C2.29297 7.41797 2.23438 7.45703 2.16406 7.48828C2.09766 7.51953 2.02539 7.53516 1.94727 7.53516C1.79102 7.53516 1.66211 7.48242 1.56055 7.37695C1.45898 7.27148 1.4082 7.14258 1.4082 6.99023C1.4082 6.83789 1.4668 6.70117 1.58398 6.58008L4.58398 3.57422C4.69727 3.45312 4.83594 3.39258 5 3.39258C5.16016 3.39258 5.29883 3.45312 5.41602 3.57422L8.41602 6.58008C8.5293 6.70117 8.58594 6.83789 8.58594 6.99023C8.58594 7.14258 8.53516 7.27148 8.43359 7.37695C8.33203 7.48242 8.20508 7.53516 8.05273 7.53516C7.9707 7.53516 7.89648 7.51953 7.83008 7.48828C7.76367 7.45703 7.70508 7.41797 7.6543 7.37109L6.78125 6.50977L5.15234 4.68164L5.49805 4.51172L5.5625 6.08203V11.584C5.5625 11.752 5.50977 11.8887 5.4043 11.9941C5.29883 12.0996 5.16406 12.1523 5 12.1523Z" fill="black"/>
</svg>
