<svg width="23" height="34" viewBox="0 0 23 34" fill="none" xmlns="http://www.w3.org/2000/svg">
<path d="M11.5 6.88867C11.9284 6.88867 12.2793 7.02539 12.5527 7.29883C12.8262 7.57227 12.9629 7.93229 12.9629 8.37891V20.6426L12.7988 24.5254L11.9238 24.0332L15.4648 19.9863L17.5703 17.9082C17.6979 17.7806 17.8483 17.6758 18.0215 17.5938C18.2038 17.5117 18.3997 17.4707 18.6094 17.4707C19.0104 17.4707 19.3431 17.6074 19.6074 17.8809C19.8717 18.1452 20.0039 18.4824 20.0039 18.8926C20.0039 19.2754 19.8535 19.6263 19.5527 19.9453L12.5801 26.9316C12.2884 27.2324 11.9284 27.3828 11.5 27.3828C11.0716 27.3828 10.7116 27.2324 10.4199 26.9316L3.44727 19.9453C3.14648 19.6263 2.99609 19.2754 2.99609 18.8926C2.99609 18.4824 3.12826 18.1452 3.39258 17.8809C3.6569 17.6074 3.98958 17.4707 4.39062 17.4707C4.60026 17.4707 4.79167 17.5117 4.96484 17.5938C5.14714 17.6758 5.30208 17.7806 5.42969 17.9082L7.52148 19.9863L11.0625 24.0332L10.2012 24.5254L10.0371 20.6426V8.37891C10.0371 7.93229 10.1693 7.57227 10.4336 7.29883C10.707 7.02539 11.0625 6.88867 11.5 6.88867Z" fill="black"/>
</svg>
