<svg width="16" height="24" viewBox="0 0 16 24" fill="none" xmlns="http://www.w3.org/2000/svg">
<path d="M8 4.68359C8.22786 4.68359 8.41667 4.75846 8.56641 4.9082C8.71615 5.05143 8.79102 5.23698 8.79102 5.46484V15.2012L8.69336 17.6035L8.18555 17.4277L11.1543 14.1367L12.5508 12.7793C12.6159 12.7142 12.6973 12.6621 12.7949 12.623C12.8926 12.584 12.9935 12.5645 13.0977 12.5645C13.319 12.5645 13.5013 12.6393 13.6445 12.7891C13.7878 12.9388 13.8594 13.1211 13.8594 13.3359C13.8594 13.5443 13.778 13.7363 13.6152 13.9121L8.58594 18.9512C8.41667 19.1335 8.22135 19.2246 8 19.2246C7.77865 19.2246 7.58333 19.1335 7.41406 18.9512L2.38477 13.9121C2.22201 13.7363 2.14062 13.5443 2.14062 13.3359C2.14062 13.1211 2.21224 12.9388 2.35547 12.7891C2.4987 12.6393 2.68099 12.5645 2.90234 12.5645C3.00651 12.5645 3.10742 12.584 3.20508 12.623C3.30273 12.6621 3.38411 12.7142 3.44922 12.7793L4.8457 14.1367L7.80469 17.4277L7.30664 17.6035L7.20898 15.2012V5.46484C7.20898 5.23698 7.28385 5.05143 7.43359 4.9082C7.58333 4.75846 7.77214 4.68359 8 4.68359Z" fill="black"/>
</svg>
