<svg width="22" height="34" viewBox="0 0 22 34" fill="none" xmlns="http://www.w3.org/2000/svg">
<path d="M11 27.3145C10.681 27.3145 10.4167 27.2096 10.207 27C9.9974 26.7995 9.89258 26.5397 9.89258 26.2207V12.5898L10.0293 9.22656L10.7266 9.47266L6.58398 14.0801L4.62891 15.9805C4.53776 16.0716 4.42383 16.1445 4.28711 16.1992C4.15039 16.2539 4.00911 16.2812 3.86328 16.2812C3.55339 16.2812 3.29818 16.1764 3.09766 15.9668C2.89714 15.7572 2.79688 15.502 2.79688 15.2012C2.79688 14.9095 2.91081 14.6406 3.13867 14.3945L10.1797 7.33984C10.4167 7.08464 10.6901 6.95703 11 6.95703C11.3099 6.95703 11.5833 7.08464 11.8203 7.33984L18.8613 14.3945C19.0892 14.6406 19.2031 14.9095 19.2031 15.2012C19.2031 15.502 19.1029 15.7572 18.9023 15.9668C18.7018 16.1764 18.4466 16.2812 18.1367 16.2812C17.9909 16.2812 17.8496 16.2539 17.7129 16.1992C17.5762 16.1445 17.4622 16.0716 17.3711 15.9805L15.416 14.0801L11.2598 9.47266L11.9707 9.22656L12.1074 12.5898V26.2207C12.1074 26.5397 12.0026 26.7995 11.793 27C11.5833 27.2096 11.319 27.3145 11 27.3145Z" fill="black"/>
</svg>
