<svg width="10" height="18" viewBox="0 0 10 18" fill="none" xmlns="http://www.w3.org/2000/svg">
<path d="M5 14.165C4.82227 14.165 4.67415 14.1079 4.55566 13.9937C4.44141 13.8794 4.38428 13.7313 4.38428 13.5493V7.58887L4.46045 5.8877L4.82861 6.07178L3.07031 8.05225L2.11816 8.98535C2.06738 9.03613 2.00391 9.07845 1.92773 9.1123C1.85579 9.14616 1.77751 9.16309 1.69287 9.16309C1.5236 9.16309 1.38395 9.10596 1.27393 8.9917C1.1639 8.87744 1.10889 8.73779 1.10889 8.57275C1.10889 8.40771 1.17236 8.2596 1.29932 8.12842L4.54932 4.87207C4.67204 4.74089 4.82227 4.67529 5 4.67529C5.1735 4.67529 5.32373 4.74089 5.45068 4.87207L8.70068 8.12842C8.8234 8.2596 8.88477 8.40771 8.88477 8.57275C8.88477 8.73779 8.82975 8.87744 8.71973 8.9917C8.6097 9.10596 8.47217 9.16309 8.30713 9.16309C8.21826 9.16309 8.13786 9.14616 8.06592 9.1123C7.99398 9.07845 7.9305 9.03613 7.87549 8.98535L6.92969 8.05225L5.16504 6.07178L5.53955 5.8877L5.60938 7.58887V13.5493C5.60938 13.7313 5.55225 13.8794 5.43799 13.9937C5.32373 14.1079 5.17773 14.165 5 14.165Z" fill="black"/>
</svg>
