<svg width="18" height="28" viewBox="0 0 18 28" fill="none" xmlns="http://www.w3.org/2000/svg">
<path d="M9 22.2793C8.69922 22.2793 8.44857 22.1826 8.24805 21.9893C8.05469 21.7959 7.95801 21.5452 7.95801 21.2373V11.1504L8.08691 8.27148L8.70996 8.58301L5.73438 11.9346L4.12305 13.5137C4.03711 13.5996 3.92969 13.6712 3.80078 13.7285C3.67904 13.7858 3.54655 13.8145 3.40332 13.8145C3.11686 13.8145 2.88053 13.7178 2.69434 13.5244C2.50814 13.3311 2.41504 13.0947 2.41504 12.8154C2.41504 12.5361 2.52246 12.2855 2.7373 12.0635L8.2373 6.55273C8.44499 6.33073 8.69922 6.21973 9 6.21973C9.29362 6.21973 9.54785 6.33073 9.7627 6.55273L15.2627 12.0635C15.4704 12.2855 15.5742 12.5361 15.5742 12.8154C15.5742 13.0947 15.4811 13.3311 15.2949 13.5244C15.1087 13.7178 14.876 13.8145 14.5967 13.8145C14.4463 13.8145 14.3102 13.7858 14.1885 13.7285C14.0667 13.6712 13.9593 13.5996 13.8662 13.5137L12.2656 11.9346L9.2793 8.58301L9.91309 8.27148L10.0312 11.1504V21.2373C10.0312 21.5452 9.93457 21.7959 9.74121 21.9893C9.54785 22.1826 9.30078 22.2793 9 22.2793Z" fill="black"/>
</svg>
