<svg width="13" height="22" viewBox="0 0 13 22" fill="none" xmlns="http://www.w3.org/2000/svg">
<path d="M6.5 17.2031C6.28125 17.2031 6.09896 17.1328 5.95312 16.9922C5.8125 16.8516 5.74219 16.6693 5.74219 16.4453V9.10938L5.83594 7.01562L6.28906 7.24219L4.125 9.67969L2.95312 10.8281C2.89062 10.8906 2.8125 10.9427 2.71875 10.9844C2.63021 11.026 2.53385 11.0469 2.42969 11.0469C2.22135 11.0469 2.04948 10.9766 1.91406 10.8359C1.77865 10.6953 1.71094 10.5234 1.71094 10.3203C1.71094 10.1172 1.78906 9.9349 1.94531 9.77344L5.94531 5.76562C6.09635 5.60417 6.28125 5.52344 6.5 5.52344C6.71354 5.52344 6.89844 5.60417 7.05469 5.76562L11.0547 9.77344C11.2057 9.9349 11.2812 10.1172 11.2812 10.3203C11.2812 10.5234 11.2135 10.6953 11.0781 10.8359C10.9427 10.9766 10.7734 11.0469 10.5703 11.0469C10.4609 11.0469 10.362 11.026 10.2734 10.9844C10.1849 10.9427 10.1068 10.8906 10.0391 10.8281L8.875 9.67969L6.70312 7.24219L7.16406 7.01562L7.25 9.10938V16.4453C7.25 16.6693 7.17969 16.8516 7.03906 16.9922C6.89844 17.1328 6.71875 17.2031 6.5 17.2031Z" fill="black"/>
</svg>
