<svg width="14" height="22" viewBox="0 0 14 22" fill="none" xmlns="http://www.w3.org/2000/svg">
<path d="M7 17.1909C6.80632 17.1909 6.64583 17.1273 6.51855 17C6.39128 16.8783 6.32764 16.7205 6.32764 16.5269V8.25098L6.41064 6.20898L6.83398 6.3584L4.31885 9.15576L3.13184 10.3096C3.0765 10.3649 3.00732 10.4092 2.92432 10.4424C2.84131 10.4756 2.75553 10.4922 2.66699 10.4922C2.47884 10.4922 2.32389 10.4285 2.20215 10.3013C2.0804 10.174 2.01953 10.019 2.01953 9.83643C2.01953 9.65934 2.0887 9.49609 2.22705 9.34668L6.50195 5.06348C6.64583 4.90853 6.81185 4.83105 7 4.83105C7.18815 4.83105 7.35417 4.90853 7.49805 5.06348L11.7729 9.34668C11.9113 9.49609 11.9805 9.65934 11.9805 9.83643C11.9805 10.019 11.9196 10.174 11.7979 10.3013C11.6761 10.4285 11.5212 10.4922 11.333 10.4922C11.2445 10.4922 11.1587 10.4756 11.0757 10.4424C10.9927 10.4092 10.9235 10.3649 10.8682 10.3096L9.68115 9.15576L7.15771 6.3584L7.58936 6.20898L7.67236 8.25098V16.5269C7.67236 16.7205 7.60872 16.8783 7.48145 17C7.35417 17.1273 7.19368 17.1909 7 17.1909Z" fill="black"/>
</svg>
