<svg width="17" height="24" viewBox="0 0 17 24" fill="none" xmlns="http://www.w3.org/2000/svg">
<path d="M8.5 19.2832C8.1875 19.2832 7.93034 19.1823 7.72852 18.9805C7.5332 18.7786 7.43555 18.515 7.43555 18.1895V9.48828L7.5625 6.69531L8.17773 7.05664L5.67773 9.91797L4.17383 11.4121C4.08268 11.5033 3.97201 11.5814 3.8418 11.6465C3.7181 11.7051 3.57812 11.7344 3.42188 11.7344C3.13542 11.7344 2.89453 11.6367 2.69922 11.4414C2.51042 11.2461 2.41602 11.002 2.41602 10.709C2.41602 10.429 2.52669 10.1751 2.74805 9.94727L7.71875 4.95703C7.93359 4.73568 8.19401 4.625 8.5 4.625C8.80599 4.625 9.06641 4.73568 9.28125 4.95703L14.2617 9.94727C14.4766 10.1751 14.584 10.429 14.584 10.709C14.584 11.002 14.4863 11.2461 14.291 11.4414C14.1022 11.6367 13.8646 11.7344 13.5781 11.7344C13.4219 11.7344 13.2819 11.7051 13.1582 11.6465C13.0345 11.5814 12.9238 11.5033 12.8262 11.4121L11.3223 9.91797L8.8125 7.05664L9.4375 6.69531L9.56445 9.48828V18.1895C9.56445 18.515 9.46354 18.7786 9.26172 18.9805C9.06641 19.1823 8.8125 19.2832 8.5 19.2832Z" fill="black"/>
</svg>
