<svg width="10" height="18" viewBox="0 0 10 18" fill="none" xmlns="http://www.w3.org/2000/svg">
<path d="M5 14.1841C4.79688 14.1841 4.62972 14.1185 4.49854 13.9873C4.37158 13.8561 4.30811 13.6847 4.30811 13.4731V7.81738L4.39062 6.00195L4.79053 6.23682L3.16553 8.09668L2.18799 9.06787C2.12874 9.12712 2.0568 9.1779 1.97217 9.22021C1.89176 9.2583 1.80078 9.27734 1.69922 9.27734C1.51302 9.27734 1.35645 9.21387 1.22949 9.08691C1.10677 8.95996 1.04541 8.80127 1.04541 8.61084C1.04541 8.42887 1.11735 8.26383 1.26123 8.11572L4.49219 4.87207C4.63184 4.72819 4.80111 4.65625 5 4.65625C5.19889 4.65625 5.36816 4.72819 5.50781 4.87207L8.74512 8.11572C8.88477 8.26383 8.95459 8.42887 8.95459 8.61084C8.95459 8.80127 8.89111 8.95996 8.76416 9.08691C8.64144 9.21387 8.48698 9.27734 8.30078 9.27734C8.19922 9.27734 8.10824 9.2583 8.02783 9.22021C7.94743 9.1779 7.87549 9.12712 7.81201 9.06787L6.83447 8.09668L5.20312 6.23682L5.60938 6.00195L5.69189 7.81738V13.4731C5.69189 13.6847 5.6263 13.8561 5.49512 13.9873C5.36816 14.1185 5.20312 14.1841 5 14.1841Z" fill="black"/>
</svg>
