<svg width="8" height="13" viewBox="0 0 8 13" fill="none" xmlns="http://www.w3.org/2000/svg">
<path d="M4 2.10986C4.15039 2.10986 4.27393 2.1582 4.37061 2.25488C4.46729 2.35156 4.51562 2.47689 4.51562 2.63086V7.67432L4.45654 9.11377L4.13965 8.95801L5.63281 7.28223L6.43311 6.49268C6.47965 6.44971 6.53337 6.4139 6.59424 6.38525C6.65511 6.35661 6.72314 6.34229 6.79834 6.34229C6.93799 6.34229 7.05436 6.39062 7.14746 6.4873C7.24056 6.5804 7.28711 6.69857 7.28711 6.8418C7.28711 6.98145 7.23519 7.10677 7.13135 7.21777L4.38135 9.97314C4.27393 10.0841 4.14681 10.1396 4 10.1396C3.84961 10.1396 3.72249 10.0841 3.61865 9.97314L0.868652 7.21777C0.76123 7.10677 0.70752 6.98145 0.70752 6.8418C0.70752 6.69857 0.754069 6.5804 0.847168 6.4873C0.940267 6.39062 1.05843 6.34229 1.20166 6.34229C1.27327 6.34229 1.33952 6.35661 1.40039 6.38525C1.46484 6.4139 1.51855 6.44971 1.56152 6.49268L2.36719 7.28223L3.85498 8.95801L3.54346 9.11377L3.479 7.67432V2.63086C3.479 2.47689 3.52734 2.35156 3.62402 2.25488C3.72428 2.1582 3.84961 2.10986 4 2.10986Z" fill="black"/>
</svg>
