<svg width="13" height="22" viewBox="0 0 13 22" fill="none" xmlns="http://www.w3.org/2000/svg">
<path d="M6.5 17.1797C6.31771 17.1797 6.16667 17.1198 6.04688 17C5.92708 16.8854 5.86719 16.737 5.86719 16.5547V8.76562L5.94531 6.84375L6.34375 6.98438L3.97656 9.61719L2.85938 10.7031C2.80729 10.7552 2.74219 10.7969 2.66406 10.8281C2.58594 10.8594 2.50521 10.875 2.42188 10.875C2.24479 10.875 2.09896 10.8151 1.98438 10.6953C1.86979 10.5755 1.8125 10.4297 1.8125 10.2578C1.8125 10.0911 1.8776 9.9375 2.00781 9.79688L6.03125 5.76562C6.16667 5.61979 6.32292 5.54688 6.5 5.54688C6.67708 5.54688 6.83333 5.61979 6.96875 5.76562L10.9922 9.79688C11.1224 9.9375 11.1875 10.0911 11.1875 10.2578C11.1875 10.4297 11.1302 10.5755 11.0156 10.6953C10.901 10.8151 10.7552 10.875 10.5781 10.875C10.4948 10.875 10.4141 10.8594 10.3359 10.8281C10.2578 10.7969 10.1927 10.7552 10.1406 10.7031L9.02344 9.61719L6.64844 6.98438L7.05469 6.84375L7.13281 8.76562V16.5547C7.13281 16.737 7.07292 16.8854 6.95312 17C6.83333 17.1198 6.68229 17.1797 6.5 17.1797Z" fill="black"/>
</svg>
