<svg width="10" height="16" viewBox="0 0 10 16" fill="none" xmlns="http://www.w3.org/2000/svg">
<path d="M5 3.41016C5.13672 3.41016 5.25 3.45508 5.33984 3.54492C5.42969 3.63086 5.47461 3.74219 5.47461 3.87891V9.7207L5.41602 11.1621L5.11133 11.0566L6.89258 9.08203L7.73047 8.26758C7.76953 8.22852 7.81836 8.19727 7.87695 8.17383C7.93555 8.15039 7.99609 8.13867 8.05859 8.13867C8.19141 8.13867 8.30078 8.18359 8.38672 8.27344C8.47266 8.36328 8.51562 8.47266 8.51562 8.60156C8.51562 8.72656 8.4668 8.8418 8.36914 8.94727L5.35156 11.9707C5.25 12.0801 5.13281 12.1348 5 12.1348C4.86719 12.1348 4.75 12.0801 4.64844 11.9707L1.63086 8.94727C1.5332 8.8418 1.48438 8.72656 1.48438 8.60156C1.48438 8.47266 1.52734 8.36328 1.61328 8.27344C1.69922 8.18359 1.80859 8.13867 1.94141 8.13867C2.00391 8.13867 2.06445 8.15039 2.12305 8.17383C2.18164 8.19727 2.23047 8.22852 2.26953 8.26758L3.10742 9.08203L4.88281 11.0566L4.58398 11.1621L4.52539 9.7207V3.87891C4.52539 3.74219 4.57031 3.63086 4.66016 3.54492C4.75 3.45508 4.86328 3.41016 5 3.41016Z" fill="black"/>
</svg>
