<svg width="18" height="28" viewBox="0 0 18 28" fill="none" xmlns="http://www.w3.org/2000/svg">
<path d="M9 6.21973C9.30078 6.21973 9.54785 6.31641 9.74121 6.50977C9.93457 6.70312 10.0312 6.95378 10.0312 7.26172V17.3486L9.91309 20.2275L9.2793 19.916L12.2656 16.5645L13.8662 14.9854C13.9593 14.8994 14.0667 14.8278 14.1885 14.7705C14.3102 14.7132 14.4463 14.6846 14.5967 14.6846C14.876 14.6846 15.1087 14.7812 15.2949 14.9746C15.4811 15.1608 15.5742 15.3971 15.5742 15.6836C15.5742 15.9629 15.4704 16.2135 15.2627 16.4355L9.7627 21.9463C9.54785 22.1683 9.29362 22.2793 9 22.2793C8.69922 22.2793 8.44499 22.1683 8.2373 21.9463L2.7373 16.4355C2.52246 16.2135 2.41504 15.9629 2.41504 15.6836C2.41504 15.3971 2.50814 15.1608 2.69434 14.9746C2.88053 14.7812 3.11686 14.6846 3.40332 14.6846C3.54655 14.6846 3.67904 14.7132 3.80078 14.7705C3.92969 14.8278 4.03711 14.8994 4.12305 14.9854L5.73438 16.5645L8.70996 19.916L8.08691 20.2275L7.95801 17.3486V7.26172C7.95801 6.95378 8.05469 6.70312 8.24805 6.50977C8.44857 6.31641 8.69922 6.21973 9 6.21973Z" fill="black"/>
</svg>
