<svg width="14" height="22" viewBox="0 0 14 22" fill="none" xmlns="http://www.w3.org/2000/svg">
<path d="M7 17.2407C6.73438 17.2407 6.51579 17.1549 6.34424 16.9834C6.17822 16.8118 6.09521 16.5877 6.09521 16.311V8.91504L6.20312 6.54102L6.72607 6.84814L4.60107 9.28027L3.32275 10.5503C3.24528 10.6278 3.1512 10.6942 3.04053 10.7495C2.93538 10.7993 2.81641 10.8242 2.68359 10.8242C2.4401 10.8242 2.23535 10.7412 2.06934 10.5752C1.90885 10.4092 1.82861 10.2017 1.82861 9.95264C1.82861 9.71468 1.92269 9.49886 2.11084 9.30518L6.33594 5.06348C6.51855 4.87533 6.73991 4.78125 7 4.78125C7.26009 4.78125 7.48145 4.87533 7.66406 5.06348L11.8975 9.30518C12.0801 9.49886 12.1714 9.71468 12.1714 9.95264C12.1714 10.2017 12.0884 10.4092 11.9224 10.5752C11.7619 10.7412 11.5599 10.8242 11.3164 10.8242C11.1836 10.8242 11.0646 10.7993 10.9595 10.7495C10.8543 10.6942 10.7603 10.6278 10.6772 10.5503L9.39893 9.28027L7.26562 6.84814L7.79688 6.54102L7.90479 8.91504V16.311C7.90479 16.5877 7.81901 16.8118 7.64746 16.9834C7.48145 17.1549 7.26562 17.2407 7 17.2407Z" fill="black"/>
</svg>
