<svg width="12" height="20" viewBox="0 0 12 20" fill="none" xmlns="http://www.w3.org/2000/svg">
<path d="M6 15.1685C5.8291 15.1685 5.6875 15.1123 5.5752 15C5.46289 14.8926 5.40674 14.7534 5.40674 14.5825V7.28027L5.47998 5.47852L5.85352 5.61035L3.63428 8.07861L2.58691 9.09668C2.53809 9.14551 2.47705 9.18457 2.40381 9.21387C2.33057 9.24316 2.25488 9.25781 2.17676 9.25781C2.01074 9.25781 1.87402 9.20166 1.7666 9.08936C1.65918 8.97705 1.60547 8.84033 1.60547 8.6792C1.60547 8.52295 1.6665 8.37891 1.78857 8.24707L5.56055 4.46777C5.6875 4.33105 5.83398 4.2627 6 4.2627C6.16602 4.2627 6.3125 4.33105 6.43945 4.46777L10.2114 8.24707C10.3335 8.37891 10.3945 8.52295 10.3945 8.6792C10.3945 8.84033 10.3408 8.97705 10.2334 9.08936C10.126 9.20166 9.98926 9.25781 9.82324 9.25781C9.74512 9.25781 9.66943 9.24316 9.59619 9.21387C9.52295 9.18457 9.46191 9.14551 9.41309 9.09668L8.36572 8.07861L6.13916 5.61035L6.52002 5.47852L6.59326 7.28027V14.5825C6.59326 14.7534 6.53711 14.8926 6.4248 15C6.3125 15.1123 6.1709 15.1685 6 15.1685Z" fill="black"/>
</svg>
