<svg width="14" height="22" viewBox="0 0 14 22" fill="none" xmlns="http://www.w3.org/2000/svg">
<path d="M7 4.80615C7.23242 4.80615 7.42334 4.88086 7.57275 5.03027C7.72217 5.17969 7.79688 5.37337 7.79688 5.61133V13.4058L7.70557 15.6304L7.21582 15.3896L9.52344 12.7998L10.7603 11.5796C10.8322 11.5132 10.9152 11.4578 11.0093 11.4136C11.1034 11.3693 11.2085 11.3472 11.3247 11.3472C11.5405 11.3472 11.7204 11.4219 11.8643 11.5713C12.0081 11.7152 12.0801 11.8978 12.0801 12.1191C12.0801 12.335 11.9998 12.5286 11.8394 12.7002L7.58936 16.9585C7.42334 17.13 7.22689 17.2158 7 17.2158C6.76758 17.2158 6.57113 17.13 6.41064 16.9585L2.16064 12.7002C1.99463 12.5286 1.91162 12.335 1.91162 12.1191C1.91162 11.8978 1.98356 11.7152 2.12744 11.5713C2.27132 11.4219 2.45394 11.3472 2.67529 11.3472C2.78597 11.3472 2.88835 11.3693 2.98242 11.4136C3.08203 11.4578 3.16504 11.5132 3.23145 11.5796L4.47656 12.7998L6.77588 15.3896L6.29443 15.6304L6.19482 13.4058V5.61133C6.19482 5.37337 6.26953 5.17969 6.41895 5.03027C6.57389 4.88086 6.76758 4.80615 7 4.80615Z" fill="black"/>
</svg>
