<svg width="18" height="28" viewBox="0 0 18 28" fill="none" xmlns="http://www.w3.org/2000/svg">
<path d="M9 22.2471C8.74935 22.2471 8.54167 22.1647 8.37695 22C8.21224 21.8424 8.12988 21.6383 8.12988 21.3877V10.6777L8.2373 8.03516L8.78516 8.22852L5.53027 11.8486L3.99414 13.3418C3.92253 13.4134 3.83301 13.4707 3.72559 13.5137C3.61816 13.5566 3.50716 13.5781 3.39258 13.5781C3.14909 13.5781 2.94857 13.4958 2.79102 13.3311C2.63346 13.1663 2.55469 12.9658 2.55469 12.7295C2.55469 12.5003 2.64421 12.2891 2.82324 12.0957L8.35547 6.55273C8.54167 6.35221 8.75651 6.25195 9 6.25195C9.24349 6.25195 9.45833 6.35221 9.64453 6.55273L15.1768 12.0957C15.3558 12.2891 15.4453 12.5003 15.4453 12.7295C15.4453 12.9658 15.3665 13.1663 15.209 13.3311C15.0514 13.4958 14.8509 13.5781 14.6074 13.5781C14.4928 13.5781 14.3818 13.5566 14.2744 13.5137C14.167 13.4707 14.0775 13.4134 14.0059 13.3418L12.4697 11.8486L9.2041 8.22852L9.7627 8.03516L9.87012 10.6777V21.3877C9.87012 21.6383 9.78776 21.8424 9.62305 22C9.45833 22.1647 9.25065 22.2471 9 22.2471Z" fill="black"/>
</svg>
