<svg width="8" height="13" viewBox="0 0 8 13" fill="none" xmlns="http://www.w3.org/2000/svg">
<path d="M4 2.12598C4.12533 2.12598 4.22917 2.16715 4.31152 2.24951C4.39388 2.32829 4.43506 2.43034 4.43506 2.55566V7.91064L4.38135 9.23193L4.10205 9.13525L5.73486 7.3252L6.50293 6.57861C6.53874 6.54281 6.5835 6.51416 6.63721 6.49268C6.69092 6.47119 6.74642 6.46045 6.80371 6.46045C6.92546 6.46045 7.02572 6.50163 7.10449 6.58398C7.18327 6.66634 7.22266 6.7666 7.22266 6.88477C7.22266 6.99935 7.1779 7.10498 7.08838 7.20166L4.32227 9.97314C4.22917 10.0734 4.12174 10.1235 4 10.1235C3.87826 10.1235 3.77083 10.0734 3.67773 9.97314L0.911621 7.20166C0.822103 7.10498 0.777344 6.99935 0.777344 6.88477C0.777344 6.7666 0.816732 6.66634 0.895508 6.58398C0.974284 6.50163 1.07454 6.46045 1.19629 6.46045C1.25358 6.46045 1.30908 6.47119 1.36279 6.49268C1.4165 6.51416 1.46126 6.54281 1.49707 6.57861L2.26514 7.3252L3.89258 9.13525L3.61865 9.23193L3.56494 7.91064V2.55566C3.56494 2.43034 3.60612 2.32829 3.68848 2.24951C3.77083 2.16715 3.87467 2.12598 4 2.12598Z" fill="black"/>
</svg>
