<svg width="14" height="22" viewBox="0 0 14 22" fill="none" xmlns="http://www.w3.org/2000/svg">
<path d="M7 4.78125C7.26562 4.78125 7.48145 4.86702 7.64746 5.03857C7.81901 5.21012 7.90479 5.43424 7.90479 5.71094V13.1069L7.79688 15.481L7.26562 15.1738L9.39893 12.7417L10.6772 11.4717C10.7603 11.3942 10.8543 11.3306 10.9595 11.2808C11.0646 11.2254 11.1836 11.1978 11.3164 11.1978C11.5599 11.1978 11.7619 11.2808 11.9224 11.4468C12.0884 11.6073 12.1714 11.8148 12.1714 12.0693C12.1714 12.3073 12.0801 12.5231 11.8975 12.7168L7.66406 16.9585C7.48145 17.1466 7.26009 17.2407 7 17.2407C6.73991 17.2407 6.51855 17.1466 6.33594 16.9585L2.11084 12.7168C1.92269 12.5231 1.82861 12.3073 1.82861 12.0693C1.82861 11.8148 1.90885 11.6073 2.06934 11.4468C2.23535 11.2808 2.4401 11.1978 2.68359 11.1978C2.81641 11.1978 2.93538 11.2254 3.04053 11.2808C3.1512 11.3306 3.24528 11.3942 3.32275 11.4717L4.60107 12.7417L6.72607 15.1738L6.20312 15.481L6.09521 13.1069V5.71094C6.09521 5.43424 6.17822 5.21012 6.34424 5.03857C6.51579 4.86702 6.73438 4.78125 7 4.78125Z" fill="black"/>
</svg>
