<svg width="13" height="22" viewBox="0 0 13 22" fill="none" xmlns="http://www.w3.org/2000/svg">
<path d="M6.5 5.52344C6.71875 5.52344 6.89844 5.59375 7.03906 5.73438C7.17969 5.875 7.25 6.05729 7.25 6.28125V13.6172L7.16406 15.7109L6.70312 15.4844L8.875 13.0469L10.0391 11.8984C10.1068 11.8359 10.1849 11.7839 10.2734 11.7422C10.362 11.7005 10.4609 11.6797 10.5703 11.6797C10.7734 11.6797 10.9427 11.75 11.0781 11.8906C11.2135 12.026 11.2812 12.1979 11.2812 12.4062C11.2812 12.6094 11.2057 12.7917 11.0547 12.9531L7.05469 16.9609C6.89844 17.1224 6.71354 17.2031 6.5 17.2031C6.28125 17.2031 6.09635 17.1224 5.94531 16.9609L1.94531 12.9531C1.78906 12.7917 1.71094 12.6094 1.71094 12.4062C1.71094 12.1979 1.77865 12.026 1.91406 11.8906C2.04948 11.75 2.22135 11.6797 2.42969 11.6797C2.53385 11.6797 2.63021 11.7005 2.71875 11.7422C2.8125 11.7839 2.89062 11.8359 2.95312 11.8984L4.125 13.0469L6.28906 15.4844L5.83594 15.7109L5.74219 13.6172V6.28125C5.74219 6.05729 5.8125 5.875 5.95312 5.73438C6.09896 5.59375 6.28125 5.52344 6.5 5.52344Z" fill="black"/>
</svg>
