<svg width="11" height="18" viewBox="0 0 11 18" fill="none" xmlns="http://www.w3.org/2000/svg">
<path d="M5.5 3.97852C5.65951 3.97852 5.79167 4.03092 5.89648 4.13574C6.0013 4.236 6.05371 4.36589 6.05371 4.52539V11.3408L5.98535 13.0225L5.62988 12.8994L7.70801 10.5957L8.68555 9.64551C8.73112 9.59993 8.78809 9.56348 8.85645 9.53613C8.9248 9.50879 8.99544 9.49512 9.06836 9.49512C9.22331 9.49512 9.35091 9.54753 9.45117 9.65234C9.55143 9.75716 9.60156 9.88477 9.60156 10.0352C9.60156 10.181 9.5446 10.3154 9.43066 10.4385L5.91016 13.9658C5.79167 14.0934 5.65495 14.1572 5.5 14.1572C5.34505 14.1572 5.20833 14.0934 5.08984 13.9658L1.56934 10.4385C1.4554 10.3154 1.39844 10.181 1.39844 10.0352C1.39844 9.88477 1.44857 9.75716 1.54883 9.65234C1.64909 9.54753 1.77669 9.49512 1.93164 9.49512C2.00456 9.49512 2.0752 9.50879 2.14355 9.53613C2.21191 9.56348 2.26888 9.59993 2.31445 9.64551L3.29199 10.5957L5.36328 12.8994L5.01465 13.0225L4.94629 11.3408V4.52539C4.94629 4.36589 4.9987 4.236 5.10352 4.13574C5.20833 4.03092 5.34049 3.97852 5.5 3.97852Z" fill="black"/>
</svg>
