<svg width="18" height="28" viewBox="0 0 18 28" fill="none" xmlns="http://www.w3.org/2000/svg">
<path d="M9 22.3115C8.65625 22.3115 8.37337 22.2005 8.15137 21.9785C7.93652 21.7565 7.8291 21.4665 7.8291 21.1084V11.5371L7.96875 8.46484L8.64551 8.8623L5.89551 12.0098L4.24121 13.6533C4.14095 13.7536 4.01921 13.8395 3.87598 13.9111C3.73991 13.9756 3.58594 14.0078 3.41406 14.0078C3.09896 14.0078 2.83398 13.9004 2.61914 13.6855C2.41146 13.4707 2.30762 13.2021 2.30762 12.8799C2.30762 12.5719 2.42936 12.2926 2.67285 12.042L8.14062 6.55273C8.37695 6.30924 8.66341 6.1875 9 6.1875C9.33659 6.1875 9.62305 6.30924 9.85938 6.55273L15.3379 12.042C15.5742 12.2926 15.6924 12.5719 15.6924 12.8799C15.6924 13.2021 15.585 13.4707 15.3701 13.6855C15.1624 13.9004 14.901 14.0078 14.5859 14.0078C14.4141 14.0078 14.2601 13.9756 14.124 13.9111C13.988 13.8395 13.8662 13.7536 13.7588 13.6533L12.1045 12.0098L9.34375 8.8623L10.0312 8.46484L10.1709 11.5371V21.1084C10.1709 21.4665 10.0599 21.7565 9.83789 21.9785C9.62305 22.2005 9.34375 22.3115 9 22.3115Z" fill="black"/>
</svg>
