<svg width="8" height="13" viewBox="0 0 8 13" fill="none" xmlns="http://www.w3.org/2000/svg">
<path d="M4 10.1396C3.84961 10.1396 3.72428 10.0913 3.62402 9.99463C3.52734 9.89795 3.479 9.77262 3.479 9.61865V4.5752L3.54346 3.13574L3.85498 3.2915L2.36719 4.96729L1.56152 5.75684C1.51855 5.7998 1.46484 5.83561 1.40039 5.86426C1.33952 5.8929 1.27327 5.90723 1.20166 5.90723C1.05843 5.90723 0.940267 5.85889 0.847168 5.76221C0.754069 5.66553 0.70752 5.54736 0.70752 5.40771C0.70752 5.26807 0.76123 5.14274 0.868652 5.03174L3.61865 2.27637C3.72249 2.16536 3.84961 2.10986 4 2.10986C4.14681 2.10986 4.27393 2.16536 4.38135 2.27637L7.13135 5.03174C7.23519 5.14274 7.28711 5.26807 7.28711 5.40771C7.28711 5.54736 7.24056 5.66553 7.14746 5.76221C7.05436 5.85889 6.93799 5.90723 6.79834 5.90723C6.72314 5.90723 6.65511 5.8929 6.59424 5.86426C6.53337 5.83561 6.47965 5.7998 6.43311 5.75684L5.63281 4.96729L4.13965 3.2915L4.45654 3.13574L4.51562 4.5752V9.61865C4.51562 9.77262 4.46729 9.89795 4.37061 9.99463C4.27393 10.0913 4.15039 10.1396 4 10.1396Z" fill="black"/>
</svg>
