<svg width="23" height="34" viewBox="0 0 23 34" fill="none" xmlns="http://www.w3.org/2000/svg">
<path d="M11.5 27.3828C11.0625 27.3828 10.707 27.2461 10.4336 26.9727C10.1693 26.6992 10.0371 26.3392 10.0371 25.8926V13.6289L10.2012 9.74609L11.0625 10.2383L7.52148 14.2852L5.42969 16.3633C5.30208 16.4909 5.14714 16.5957 4.96484 16.6777C4.79167 16.7598 4.60026 16.8008 4.39062 16.8008C3.98958 16.8008 3.6569 16.6686 3.39258 16.4043C3.12826 16.1309 2.99609 15.7891 2.99609 15.3789C2.99609 14.9961 3.14648 14.6452 3.44727 14.3262L10.4199 7.33984C10.7116 7.03906 11.0716 6.88867 11.5 6.88867C11.9284 6.88867 12.2884 7.03906 12.5801 7.33984L19.5527 14.3262C19.8535 14.6452 20.0039 14.9961 20.0039 15.3789C20.0039 15.7891 19.8717 16.1309 19.6074 16.4043C19.3431 16.6686 19.0104 16.8008 18.6094 16.8008C18.3997 16.8008 18.2038 16.7598 18.0215 16.6777C17.8483 16.5957 17.6979 16.4909 17.5703 16.3633L15.4648 14.2852L11.9238 10.2383L12.7988 9.74609L12.9629 13.6289V25.8926C12.9629 26.3392 12.8262 26.6992 12.5527 26.9727C12.2793 27.2461 11.9284 27.3828 11.5 27.3828Z" fill="black"/>
</svg>
