<svg width="8" height="13" viewBox="0 0 8 13" fill="none" xmlns="http://www.w3.org/2000/svg">
<path d="M4 10.1235C3.87467 10.1235 3.77083 10.0824 3.68848 10C3.60612 9.92122 3.56494 9.81917 3.56494 9.69385V4.33887L3.61865 3.01758L3.89258 3.11426L2.26514 4.92432L1.49707 5.6709C1.46126 5.70671 1.4165 5.73535 1.36279 5.75684C1.30908 5.77832 1.25358 5.78906 1.19629 5.78906C1.07454 5.78906 0.974284 5.74788 0.895508 5.66553C0.816732 5.58317 0.777344 5.48291 0.777344 5.36475C0.777344 5.25016 0.822103 5.14453 0.911621 5.04785L3.67773 2.27637C3.77083 2.17611 3.87826 2.12598 4 2.12598C4.12174 2.12598 4.22917 2.17611 4.32227 2.27637L7.08838 5.04785C7.1779 5.14453 7.22266 5.25016 7.22266 5.36475C7.22266 5.48291 7.18327 5.58317 7.10449 5.66553C7.02572 5.74788 6.92546 5.78906 6.80371 5.78906C6.74642 5.78906 6.69092 5.77832 6.63721 5.75684C6.5835 5.73535 6.53874 5.70671 6.50293 5.6709L5.73486 4.92432L4.10205 3.11426L4.38135 3.01758L4.43506 4.33887V9.69385C4.43506 9.81917 4.39388 9.92122 4.31152 10C4.22917 10.0824 4.12533 10.1235 4 10.1235Z" fill="black"/>
</svg>
