<svg width="12" height="20" viewBox="0 0 12 20" fill="none" xmlns="http://www.w3.org/2000/svg">
<path d="M6 4.24072C6.20508 4.24072 6.37354 4.30664 6.50537 4.43848C6.63721 4.57031 6.70312 4.74121 6.70312 4.95117V11.8286L6.62256 13.7915L6.19043 13.5791L8.22656 11.2939L9.31787 10.2173C9.38135 10.1587 9.45459 10.1099 9.5376 10.0708C9.62061 10.0317 9.71338 10.0122 9.81592 10.0122C10.0063 10.0122 10.165 10.0781 10.292 10.21C10.4189 10.3369 10.4824 10.498 10.4824 10.6934C10.4824 10.8838 10.4116 11.0547 10.27 11.2061L6.52002 14.9634C6.37354 15.1147 6.2002 15.1904 6 15.1904C5.79492 15.1904 5.62158 15.1147 5.47998 14.9634L1.72998 11.2061C1.5835 11.0547 1.51025 10.8838 1.51025 10.6934C1.51025 10.498 1.57373 10.3369 1.70068 10.21C1.82764 10.0781 1.98877 10.0122 2.18408 10.0122C2.28174 10.0122 2.37207 10.0317 2.45508 10.0708C2.54297 10.1099 2.61621 10.1587 2.6748 10.2173L3.77344 11.2939L5.80225 13.5791L5.37744 13.7915L5.28955 11.8286V4.95117C5.28955 4.74121 5.35547 4.57031 5.4873 4.43848C5.62402 4.30664 5.79492 4.24072 6 4.24072Z" fill="black"/>
</svg>
