<svg width="12" height="18" viewBox="0 0 12 18" fill="none" xmlns="http://www.w3.org/2000/svg">
<path d="M6 14.1982C5.78125 14.1982 5.60124 14.1276 5.45996 13.9863C5.32324 13.8451 5.25488 13.6605 5.25488 13.4326V7.3418L5.34375 5.38672L5.77441 5.63965L4.02441 7.64258L2.97168 8.68848C2.90788 8.75228 2.8304 8.80697 2.73926 8.85254C2.65267 8.89355 2.55469 8.91406 2.44531 8.91406C2.24479 8.91406 2.07617 8.8457 1.93945 8.70898C1.80729 8.57227 1.74121 8.40137 1.74121 8.19629C1.74121 8.00033 1.81868 7.82259 1.97363 7.66309L5.45312 4.16992C5.60352 4.01497 5.78581 3.9375 6 3.9375C6.21419 3.9375 6.39648 4.01497 6.54688 4.16992L10.0332 7.66309C10.1836 7.82259 10.2588 8.00033 10.2588 8.19629C10.2588 8.40137 10.1904 8.57227 10.0537 8.70898C9.92155 8.8457 9.75521 8.91406 9.55469 8.91406C9.44531 8.91406 9.34733 8.89355 9.26074 8.85254C9.17415 8.80697 9.09668 8.75228 9.02832 8.68848L7.97559 7.64258L6.21875 5.63965L6.65625 5.38672L6.74512 7.3418V13.4326C6.74512 13.6605 6.67448 13.8451 6.5332 13.9863C6.39648 14.1276 6.21875 14.1982 6 14.1982Z" fill="black"/>
</svg>
