<svg width="12" height="20" viewBox="0 0 12 20" fill="none" xmlns="http://www.w3.org/2000/svg">
<path d="M6 4.2627C6.1709 4.2627 6.3125 4.31885 6.4248 4.43115C6.53711 4.53857 6.59326 4.67773 6.59326 4.84863V12.1509L6.52002 13.9526L6.13916 13.8208L8.36572 11.3525L9.41309 10.3345C9.46191 10.2856 9.52295 10.2466 9.59619 10.2173C9.66943 10.188 9.74512 10.1733 9.82324 10.1733C9.98926 10.1733 10.126 10.2295 10.2334 10.3418C10.3408 10.4541 10.3945 10.5908 10.3945 10.752C10.3945 10.9082 10.3335 11.0522 10.2114 11.1841L6.43945 14.9634C6.3125 15.1001 6.16602 15.1685 6 15.1685C5.83398 15.1685 5.6875 15.1001 5.56055 14.9634L1.78857 11.1841C1.6665 11.0522 1.60547 10.9082 1.60547 10.752C1.60547 10.5908 1.65918 10.4541 1.7666 10.3418C1.87402 10.2295 2.01074 10.1733 2.17676 10.1733C2.25488 10.1733 2.33057 10.188 2.40381 10.2173C2.47705 10.2466 2.53809 10.2856 2.58691 10.3345L3.63428 11.3525L5.85352 13.8208L5.47998 13.9526L5.40674 12.1509V4.84863C5.40674 4.67773 5.46289 4.53857 5.5752 4.43115C5.6875 4.31885 5.8291 4.2627 6 4.2627Z" fill="black"/>
</svg>
