<svg width="16" height="24" viewBox="0 0 16 24" fill="none" xmlns="http://www.w3.org/2000/svg">
<path d="M8 19.2246C7.77214 19.2246 7.58333 19.1497 7.43359 19C7.28385 18.8568 7.20898 18.6712 7.20898 18.4434V8.70703L7.30664 6.30469L7.80469 6.48047L4.8457 9.77148L3.44922 11.1289C3.38411 11.194 3.30273 11.2461 3.20508 11.2852C3.10742 11.3242 3.00651 11.3438 2.90234 11.3438C2.68099 11.3438 2.4987 11.2689 2.35547 11.1191C2.21224 10.9694 2.14062 10.7871 2.14062 10.5723C2.14062 10.3639 2.22201 10.1719 2.38477 9.99609L7.41406 4.95703C7.58333 4.77474 7.77865 4.68359 8 4.68359C8.22135 4.68359 8.41667 4.77474 8.58594 4.95703L13.6152 9.99609C13.778 10.1719 13.8594 10.3639 13.8594 10.5723C13.8594 10.7871 13.7878 10.9694 13.6445 11.1191C13.5013 11.2689 13.319 11.3438 13.0977 11.3438C12.9935 11.3438 12.8926 11.3242 12.7949 11.2852C12.6973 11.2461 12.6159 11.194 12.5508 11.1289L11.1543 9.77148L8.18555 6.48047L8.69336 6.30469L8.79102 8.70703V18.4434C8.79102 18.6712 8.71615 18.8568 8.56641 19C8.41667 19.1497 8.22786 19.2246 8 19.2246Z" fill="black"/>
</svg>
