<svg width="10" height="18" viewBox="0 0 10 18" fill="none" xmlns="http://www.w3.org/2000/svg">
<path d="M5 14.146C4.85189 14.146 4.72917 14.0973 4.63184 14C4.53451 13.9069 4.48584 13.7863 4.48584 13.6382V7.30957L4.54932 5.74805L4.87305 5.8623L2.94971 8.00146L2.04199 8.88379C1.99967 8.92611 1.94678 8.95996 1.8833 8.98535C1.81982 9.01074 1.75423 9.02344 1.68652 9.02344C1.54264 9.02344 1.42415 8.97477 1.33105 8.87744C1.23796 8.78011 1.19141 8.66162 1.19141 8.52197C1.19141 8.38656 1.2443 8.26172 1.3501 8.14746L4.61914 4.87207C4.72917 4.75358 4.85612 4.69434 5 4.69434C5.14388 4.69434 5.27083 4.75358 5.38086 4.87207L8.6499 8.14746C8.7557 8.26172 8.80859 8.38656 8.80859 8.52197C8.80859 8.66162 8.76204 8.78011 8.66895 8.87744C8.57585 8.97477 8.45736 9.02344 8.31348 9.02344C8.24577 9.02344 8.18018 9.01074 8.1167 8.98535C8.05322 8.95996 8.00033 8.92611 7.95801 8.88379L7.05029 8.00146L5.12061 5.8623L5.45068 5.74805L5.51416 7.30957V13.6382C5.51416 13.7863 5.46549 13.9069 5.36816 14C5.27083 14.0973 5.14811 14.146 5 14.146Z" fill="black"/>
</svg>
