<svg width="13" height="22" viewBox="0 0 13 22" fill="none" xmlns="http://www.w3.org/2000/svg">
<path d="M6.5 5.54688C6.68229 5.54688 6.83333 5.60677 6.95312 5.72656C7.07292 5.84115 7.13281 5.98958 7.13281 6.17188V13.9609L7.05469 15.8828L6.64844 15.7422L9.02344 13.1094L10.1406 12.0234C10.1927 11.9714 10.2578 11.9297 10.3359 11.8984C10.4141 11.8672 10.4948 11.8516 10.5781 11.8516C10.7552 11.8516 10.901 11.9115 11.0156 12.0312C11.1302 12.151 11.1875 12.2969 11.1875 12.4688C11.1875 12.6354 11.1224 12.7891 10.9922 12.9297L6.96875 16.9609C6.83333 17.1068 6.67708 17.1797 6.5 17.1797C6.32292 17.1797 6.16667 17.1068 6.03125 16.9609L2.00781 12.9297C1.8776 12.7891 1.8125 12.6354 1.8125 12.4688C1.8125 12.2969 1.86979 12.151 1.98438 12.0312C2.09896 11.9115 2.24479 11.8516 2.42188 11.8516C2.50521 11.8516 2.58594 11.8672 2.66406 11.8984C2.74219 11.9297 2.80729 11.9714 2.85938 12.0234L3.97656 13.1094L6.34375 15.7422L5.94531 15.8828L5.86719 13.9609V6.17188C5.86719 5.98958 5.92708 5.84115 6.04688 5.72656C6.16667 5.60677 6.31771 5.54688 6.5 5.54688Z" fill="black"/>
</svg>
