<svg width="17" height="24" viewBox="0 0 17 24" fill="none" xmlns="http://www.w3.org/2000/svg">
<path d="M8.5 4.625C8.8125 4.625 9.06641 4.72591 9.26172 4.92773C9.46354 5.12956 9.56445 5.39323 9.56445 5.71875V14.4199L9.4375 17.2129L8.8125 16.8516L11.3223 13.9902L12.8262 12.4961C12.9238 12.4049 13.0345 12.3301 13.1582 12.2715C13.2819 12.2064 13.4219 12.1738 13.5781 12.1738C13.8646 12.1738 14.1022 12.2715 14.291 12.4668C14.4863 12.6556 14.584 12.8997 14.584 13.1992C14.584 13.4792 14.4766 13.7331 14.2617 13.9609L9.28125 18.9512C9.06641 19.1725 8.80599 19.2832 8.5 19.2832C8.19401 19.2832 7.93359 19.1725 7.71875 18.9512L2.74805 13.9609C2.52669 13.7331 2.41602 13.4792 2.41602 13.1992C2.41602 12.8997 2.51042 12.6556 2.69922 12.4668C2.89453 12.2715 3.13542 12.1738 3.42188 12.1738C3.57812 12.1738 3.7181 12.2064 3.8418 12.2715C3.97201 12.3301 4.08268 12.4049 4.17383 12.4961L5.67773 13.9902L8.17773 16.8516L7.5625 17.2129L7.43555 14.4199V5.71875C7.43555 5.39323 7.5332 5.12956 7.72852 4.92773C7.93034 4.72591 8.1875 4.625 8.5 4.625Z" fill="black"/>
</svg>
