<svg width="13" height="20" viewBox="0 0 13 20" fill="none" xmlns="http://www.w3.org/2000/svg">
<path d="M6.5 4.22607C6.72949 4.22607 6.91748 4.29932 7.06396 4.4458C7.21045 4.59229 7.28369 4.78516 7.28369 5.02441V11.5942L7.1958 13.6743L6.72705 13.4106L8.62402 11.2427L9.75195 10.1294C9.82031 10.061 9.90088 10.0049 9.99365 9.96094C10.0913 9.91699 10.1963 9.89502 10.3086 9.89502C10.5234 9.89502 10.7017 9.96826 10.8433 10.1147C10.9849 10.2563 11.0557 10.437 11.0557 10.6567C11.0557 10.8618 10.9751 11.0498 10.814 11.2207L7.07861 14.9634C6.92236 15.1245 6.72949 15.2051 6.5 15.2051C6.27051 15.2051 6.07764 15.1245 5.92139 14.9634L2.18604 11.2207C2.0249 11.0498 1.94434 10.8618 1.94434 10.6567C1.94434 10.437 2.01514 10.2563 2.15674 10.1147C2.29834 9.96826 2.47656 9.89502 2.69141 9.89502C2.80371 9.89502 2.90625 9.91699 2.99902 9.96094C3.09668 10.0049 3.17969 10.061 3.24805 10.1294L4.36865 11.2427L6.26562 13.4106L5.8042 13.6743L5.71631 11.5942V5.02441C5.71631 4.78516 5.78711 4.59229 5.92871 4.4458C6.0752 4.29932 6.26562 4.22607 6.5 4.22607Z" fill="black"/>
</svg>
