<svg width="22" height="34" viewBox="0 0 22 34" fill="none" xmlns="http://www.w3.org/2000/svg">
<path d="M11 6.95703C11.319 6.95703 11.5833 7.06185 11.793 7.27148C12.0026 7.47201 12.1074 7.73177 12.1074 8.05078V21.6816L11.9707 25.0449L11.2598 24.7988L15.416 20.1914L17.3711 18.291C17.4622 18.1999 17.5762 18.127 17.7129 18.0723C17.8496 18.0176 17.9909 17.9902 18.1367 17.9902C18.4466 17.9902 18.7018 18.0951 18.9023 18.3047C19.1029 18.5143 19.2031 18.7695 19.2031 19.0703C19.2031 19.362 19.0892 19.6309 18.8613 19.877L11.8203 26.9316C11.5833 27.1868 11.3099 27.3145 11 27.3145C10.6901 27.3145 10.4167 27.1868 10.1797 26.9316L3.13867 19.877C2.91081 19.6309 2.79688 19.362 2.79688 19.0703C2.79688 18.7695 2.89714 18.5143 3.09766 18.3047C3.29818 18.0951 3.55339 17.9902 3.86328 17.9902C4.00911 17.9902 4.15039 18.0176 4.28711 18.0723C4.42383 18.127 4.53776 18.1999 4.62891 18.291L6.58398 20.1914L10.7266 24.7988L10.0293 25.0449L9.89258 21.6816V8.05078C9.89258 7.73177 9.9974 7.47201 10.207 7.27148C10.4167 7.06185 10.681 6.95703 11 6.95703Z" fill="black"/>
</svg>
