<svg width="12" height="18" viewBox="0 0 12 18" fill="none" xmlns="http://www.w3.org/2000/svg">
<path d="M6 3.9375C6.21875 3.9375 6.39648 4.00814 6.5332 4.14941C6.67448 4.29069 6.74512 4.47526 6.74512 4.70312V10.7939L6.65625 12.749L6.21875 12.4961L7.97559 10.4932L9.02832 9.44727C9.09668 9.38346 9.17415 9.33105 9.26074 9.29004C9.34733 9.24447 9.44531 9.22168 9.55469 9.22168C9.75521 9.22168 9.92155 9.29004 10.0537 9.42676C10.1904 9.55892 10.2588 9.72982 10.2588 9.93945C10.2588 10.1354 10.1836 10.3132 10.0332 10.4727L6.54688 13.9658C6.39648 14.1208 6.21419 14.1982 6 14.1982C5.78581 14.1982 5.60352 14.1208 5.45312 13.9658L1.97363 10.4727C1.81868 10.3132 1.74121 10.1354 1.74121 9.93945C1.74121 9.72982 1.80729 9.55892 1.93945 9.42676C2.07617 9.29004 2.24479 9.22168 2.44531 9.22168C2.55469 9.22168 2.65267 9.24447 2.73926 9.29004C2.8304 9.33105 2.90788 9.38346 2.97168 9.44727L4.02441 10.4932L5.77441 12.4961L5.34375 12.749L5.25488 10.7939V4.70312C5.25488 4.47526 5.32324 4.29069 5.45996 4.14941C5.60124 4.00814 5.78125 3.9375 6 3.9375Z" fill="black"/>
</svg>
