<svg width="16" height="24" viewBox="0 0 16 24" fill="none" xmlns="http://www.w3.org/2000/svg">
<path d="M8 19.2539C7.72656 19.2539 7.4987 19.166 7.31641 18.9902C7.14062 18.8145 7.05273 18.5866 7.05273 18.3066V9.13672L7.16992 6.51953L7.73633 6.80273L5.03125 9.84961L3.56641 11.2852C3.48828 11.3633 3.39062 11.4284 3.27344 11.4805C3.16276 11.5326 3.04232 11.5586 2.91211 11.5586C2.65169 11.5586 2.43685 11.4707 2.26758 11.2949C2.09831 11.1191 2.01367 10.9043 2.01367 10.6504C2.01367 10.3965 2.11133 10.1686 2.30664 9.9668L7.30664 4.95703C7.49544 4.75521 7.72656 4.6543 8 4.6543C8.26693 4.6543 8.49805 4.75521 8.69336 4.95703L13.6934 9.9668C13.8822 10.1686 13.9766 10.3965 13.9766 10.6504C13.9766 10.9043 13.8919 11.1191 13.7227 11.2949C13.5534 11.4707 13.3418 11.5586 13.0879 11.5586C12.9512 11.5586 12.8275 11.5326 12.7168 11.4805C12.6061 11.4284 12.5085 11.3633 12.4238 11.2852L10.9688 9.84961L8.25391 6.80273L8.83008 6.51953L8.9375 9.13672V18.3066C8.9375 18.5866 8.84961 18.8145 8.67383 18.9902C8.49805 19.166 8.27344 19.2539 8 19.2539Z" fill="black"/>
</svg>
