<svg width="10" height="16" viewBox="0 0 10 16" fill="none" xmlns="http://www.w3.org/2000/svg">
<path d="M5 12.1348C4.86328 12.1348 4.75 12.0898 4.66016 12C4.57031 11.9141 4.52539 11.8027 4.52539 11.666V5.82422L4.58398 4.38281L4.88281 4.48828L3.10742 6.46289L2.26953 7.27734C2.23047 7.31641 2.18164 7.34766 2.12305 7.37109C2.06445 7.39453 2.00391 7.40625 1.94141 7.40625C1.80859 7.40625 1.69922 7.36133 1.61328 7.27148C1.52734 7.18164 1.48438 7.07227 1.48438 6.94336C1.48438 6.81836 1.5332 6.70312 1.63086 6.59766L4.64844 3.57422C4.75 3.46484 4.86719 3.41016 5 3.41016C5.13281 3.41016 5.25 3.46484 5.35156 3.57422L8.36914 6.59766C8.4668 6.70312 8.51562 6.81836 8.51562 6.94336C8.51562 7.07227 8.47266 7.18164 8.38672 7.27148C8.30078 7.36133 8.19141 7.40625 8.05859 7.40625C7.99609 7.40625 7.93555 7.39453 7.87695 7.37109C7.81836 7.34766 7.76953 7.31641 7.73047 7.27734L6.89258 6.46289L5.11133 4.48828L5.41602 4.38281L5.47461 5.82422V11.666C5.47461 11.8027 5.42969 11.9141 5.33984 12C5.25 12.0898 5.13672 12.1348 5 12.1348Z" fill="black"/>
</svg>
