<svg width="12" height="20" viewBox="0 0 12 20" fill="none" xmlns="http://www.w3.org/2000/svg">
<path d="M6 15.1904C5.79492 15.1904 5.62402 15.1245 5.4873 14.9927C5.35547 14.8608 5.28955 14.6899 5.28955 14.48V7.60254L5.37744 5.63965L5.80225 5.85205L3.77344 8.13721L2.6748 9.21387C2.61621 9.27246 2.54297 9.32129 2.45508 9.36035C2.37207 9.39941 2.28174 9.41895 2.18408 9.41895C1.98877 9.41895 1.82764 9.35303 1.70068 9.22119C1.57373 9.08936 1.51025 8.92822 1.51025 8.73779C1.51025 8.54736 1.5835 8.37646 1.72998 8.2251L5.47998 4.46777C5.62158 4.31641 5.79492 4.24072 6 4.24072C6.2002 4.24072 6.37354 4.31641 6.52002 4.46777L10.27 8.2251C10.4116 8.37646 10.4824 8.54736 10.4824 8.73779C10.4824 8.92822 10.4189 9.08936 10.292 9.22119C10.165 9.35303 10.0063 9.41895 9.81592 9.41895C9.71338 9.41895 9.62061 9.39941 9.5376 9.36035C9.45459 9.32129 9.38135 9.27246 9.31787 9.21387L8.22656 8.13721L6.19043 5.85205L6.62256 5.63965L6.70312 7.60254V14.48C6.70312 14.6899 6.63721 14.8608 6.50537 14.9927C6.37354 15.1245 6.20508 15.1904 6 15.1904Z" fill="black"/>
</svg>
