<svg width="12" height="18" viewBox="0 0 12 18" fill="none" xmlns="http://www.w3.org/2000/svg">
<path d="M6 3.95801C6.19141 3.95801 6.34863 4.01953 6.47168 4.14258C6.59473 4.26562 6.65625 4.42513 6.65625 4.62109V11.04L6.58105 12.8721L6.17773 12.6738L8.07812 10.541L9.09668 9.53613C9.15592 9.48145 9.22428 9.43587 9.30176 9.39941C9.37923 9.36296 9.46582 9.34473 9.56152 9.34473C9.73926 9.34473 9.88737 9.40625 10.0059 9.5293C10.1243 9.64779 10.1836 9.79818 10.1836 9.98047C10.1836 10.1582 10.1175 10.3177 9.98535 10.459L6.48535 13.9658C6.34863 14.1071 6.18685 14.1777 6 14.1777C5.80859 14.1777 5.64681 14.1071 5.51465 13.9658L2.01465 10.459C1.87793 10.3177 1.80957 10.1582 1.80957 9.98047C1.80957 9.79818 1.86882 9.64779 1.9873 9.5293C2.10579 9.40625 2.25618 9.34473 2.43848 9.34473C2.52962 9.34473 2.61393 9.36296 2.69141 9.39941C2.77344 9.43587 2.8418 9.48145 2.89648 9.53613L3.92188 10.541L5.81543 12.6738L5.41895 12.8721L5.33691 11.04V4.62109C5.33691 4.42513 5.39844 4.26562 5.52148 4.14258C5.64909 4.01953 5.80859 3.95801 6 3.95801Z" fill="black"/>
</svg>
