<svg width="10" height="18" viewBox="0 0 10 18" fill="none" xmlns="http://www.w3.org/2000/svg">
<path d="M5 4.65625C5.20312 4.65625 5.36816 4.72184 5.49512 4.85303C5.6263 4.98421 5.69189 5.1556 5.69189 5.36719V11.0229L5.60938 12.8384L5.20312 12.6035L6.83447 10.7437L7.81201 9.77246C7.87549 9.71322 7.94743 9.66455 8.02783 9.62646C8.10824 9.58415 8.19922 9.56299 8.30078 9.56299C8.48698 9.56299 8.64144 9.62646 8.76416 9.75342C8.89111 9.87614 8.95459 10.0348 8.95459 10.2295C8.95459 10.4115 8.88477 10.5765 8.74512 10.7246L5.50781 13.9683C5.36816 14.1121 5.19889 14.1841 5 14.1841C4.80111 14.1841 4.63184 14.1121 4.49219 13.9683L1.26123 10.7246C1.11735 10.5765 1.04541 10.4115 1.04541 10.2295C1.04541 10.0348 1.10677 9.87614 1.22949 9.75342C1.35645 9.62646 1.51302 9.56299 1.69922 9.56299C1.80078 9.56299 1.89176 9.58415 1.97217 9.62646C2.0568 9.66455 2.12874 9.71322 2.18799 9.77246L3.16553 10.7437L4.79053 12.6035L4.39062 12.8384L4.30811 11.0229V5.36719C4.30811 5.1556 4.37158 4.98421 4.49854 4.85303C4.62972 4.72184 4.79688 4.65625 5 4.65625Z" fill="black"/>
</svg>
