<svg width="23" height="34" viewBox="0 0 23 34" fill="none" xmlns="http://www.w3.org/2000/svg">
<path d="M11.5 27.3555C11.1172 27.3555 10.7982 27.2324 10.543 26.9863C10.2969 26.7402 10.1738 26.4212 10.1738 26.0293V13.1914L10.3379 9.52734L11.1309 9.92383L7.34375 14.1895L5.29297 16.1992C5.18359 16.3086 5.04688 16.3997 4.88281 16.4727C4.72786 16.5456 4.55924 16.582 4.37695 16.582C4.01237 16.582 3.71159 16.459 3.47461 16.2129C3.23763 15.9668 3.11914 15.666 3.11914 15.3105C3.11914 14.9551 3.25586 14.6361 3.5293 14.3535L10.5293 7.33984C10.7936 7.05729 11.1172 6.91602 11.5 6.91602C11.8737 6.91602 12.1973 7.05729 12.4707 7.33984L19.4707 14.3535C19.735 14.6361 19.8672 14.9551 19.8672 15.3105C19.8672 15.666 19.7487 15.9668 19.5117 16.2129C19.2747 16.459 18.9785 16.582 18.623 16.582C18.4316 16.582 18.2585 16.5456 18.1035 16.4727C17.9486 16.3997 17.8118 16.3086 17.6934 16.1992L15.6562 14.1895L11.8555 9.92383L12.6621 9.52734L12.8125 13.1914V26.0293C12.8125 26.4212 12.6895 26.7402 12.4434 26.9863C12.1973 27.2324 11.8828 27.3555 11.5 27.3555Z" fill="black"/>
</svg>
