<svg width="8" height="13" viewBox="0 0 8 13" fill="none" xmlns="http://www.w3.org/2000/svg">
<path d="M4 10.1504C3.82812 10.1504 3.68848 10.0967 3.58105 9.98926C3.47721 9.88184 3.42529 9.7404 3.42529 9.56494V4.74707L3.48975 3.22168L3.82812 3.41504L2.43701 5.00488L1.61523 5.82129C1.5651 5.87142 1.50423 5.9126 1.43262 5.94482C1.36458 5.97705 1.28939 5.99316 1.20703 5.99316C1.04948 5.99316 0.918783 5.94124 0.814941 5.8374C0.7111 5.72998 0.65918 5.5957 0.65918 5.43457C0.65918 5.28418 0.718262 5.14632 0.836426 5.021L3.57568 2.27637C3.69027 2.1582 3.83171 2.09912 4 2.09912C4.16829 2.09912 4.30973 2.1582 4.42432 2.27637L7.16357 5.021C7.28174 5.14632 7.34082 5.28418 7.34082 5.43457C7.34082 5.5957 7.2889 5.72998 7.18506 5.8374C7.08122 5.94124 6.95052 5.99316 6.79297 5.99316C6.71061 5.99316 6.63363 5.97705 6.56201 5.94482C6.49398 5.9126 6.4349 5.87142 6.38477 5.82129L5.55762 5.00488L4.1665 3.41504L4.51025 3.22168L4.57471 4.74707V9.56494C4.57471 9.7404 4.521 9.88184 4.41357 9.98926C4.30615 10.0967 4.16829 10.1504 4 10.1504Z" fill="black"/>
</svg>
