<svg fill="none" height="36" viewBox="0 0 36 36" width="36" xmlns="http://www.w3.org/2000/svg"><path clip-rule="evenodd" d="m3.85693 18c0-7.8109 6.33197-14.14285 14.14287-14.14285s14.1428 6.33195 14.1428 14.14285-6.3319 14.1429-14.1428 14.1429-14.14287-6.332-14.14287-14.1429zm11.96167-7.676c.3339.3339.3339.8753 0 1.2092l-1.7547 1.7547h9.5073c.4722 0 .855.3828.855.855s-.3828.855-.855.855h-9.5073l1.7547 1.7547c.3339.3339.3339.8752 0 1.2091s-.8752.3339-1.2091 0l-3.2143-3.2143c-.1604-.1603-.2504-.3778-.2504-.6045 0-.2268.09-.4443.2504-.6046l3.2143-3.2143c.3339-.3339.8752-.3339 1.2091 0zm4.5723 8.9234c-.3339-.3339-.3339-.8752 0-1.2091s.8753-.3339 1.2092 0l3.2143 3.2143c.1603.1603.2504.3778.2504.6045 0 .2268-.0901.4443-.2504.6046l-3.2143 3.2143c-.3339.3339-.8753.3339-1.2092 0s-.3339-.8752 0-1.2091l1.7547-1.7548h-9.5072c-.4722 0-.855-.3828-.855-.855s.3828-.855.855-.855h9.5072z" fill="#000" fill-rule="evenodd"/></svg>