<svg fill="none" height="36" viewBox="0 0 36 36" width="36" xmlns="http://www.w3.org/2000/svg"><g fill="#000"><path d="m3.85911 12.8571c.01041-1.4977.07056-2.3545.41823-3.03678.36979-.72577.95986-1.31584 1.68563-1.68564.82509-.4204 1.90519-.4204 4.06543-.4204h15.9428c2.1602 0 3.2403 0 4.0654.4204.7258.3698 1.3158.95987 1.6856 1.68564.3477.68228.4079 1.53908.4183 3.03678z"/><path clip-rule="evenodd" d="m3.85693 15.4286v6.6857c0 2.1602 0 3.2403.42041 4.0654.36979.7257.95986 1.3158 1.68563 1.6856.82509.4204 1.90519.4204 4.06543.4204h15.9428c2.1602 0 3.2403 0 4.0654-.4204.7258-.3698 1.3158-.9599 1.6856-1.6856.4204-.8251.4204-1.9052.4204-4.0654v-6.6857zm3.85715 7.0714c0-.5991 0-.8986.09787-1.1349.13049-.315.38078-.5653.69582-.6958.23628-.0979.53581-.0979 1.13488-.0979h1.28575c.599 0 .8986 0 1.1348.0979.3151.1305.5654.3808.6959.6958.0978.2363.0978.5358.0978 1.1349s0 .8986-.0978 1.1349c-.1305.315-.3808.5653-.6959.6958-.2362.0979-.5358.0979-1.1348.0979h-1.28575c-.59907 0-.8986 0-1.13488-.0979-.31504-.1305-.56533-.3808-.69582-.6958-.09787-.2363-.09787-.5358-.09787-1.1349z" fill-rule="evenodd"/></g></svg>