<svg fill="none" height="36" viewBox="0 0 36 36" width="36" xmlns="http://www.w3.org/2000/svg"><path clip-rule="evenodd" d="m3.85693 18c0-7.8109 6.33197-14.14285 14.14287-14.14285s14.1428 6.33195 14.1428 14.14285-6.3319 14.1429-14.1428 14.1429-14.14287-6.332-14.14287-14.1429zm14.14287-7.4571c.5681 0 1.0286.4605 1.0286 1.0285v5.4h5.4c.568 0 1.0285.4605 1.0285 1.0286s-.4605 1.0286-1.0285 1.0286h-5.4v5.4c0 .568-.4605 1.0285-1.0286 1.0285s-1.0286-.4605-1.0286-1.0285v-5.4h-5.4c-.568 0-1.0286-.4605-1.0286-1.0286s.4606-1.0286 1.0286-1.0286h5.4v-5.4c0-.568.4605-1.0285 1.0286-1.0285z" fill="#000" fill-rule="evenodd"/></svg>