<svg width="40" height="32" viewBox="0 0 40 32" fill="none" xmlns="http://www.w3.org/2000/svg"><path fill-rule="evenodd" clip-rule="evenodd" d="M26 4.9a1.1 1.1 0 0 0 0 2.2h2.3l-8.28 8.093a.1.1 0 0 1-.136.004l-3.88-3.352a2.3 2.3 0 0 0-3.007 0L8.28 15.917a1.1 1.1 0 0 0 1.438 1.665l4.716-4.072a.1.1 0 0 1 .13 0l3.882 3.352a2.3 2.3 0 0 0 3.11-.096L29.9 8.613V11a1.1 1.1 0 0 0 2.2 0V6A1.1 1.1 0 0 0 31 4.9h-5zM13 29h14c1.4 0 2.1 0 2.635-.273a2.5 2.5 0 0 0 1.093-1.092C31 27.1 31 26.4 31 25v-9.503a1.597 1.597 0 0 0-2.716-1.139l-6.642 6.528c-.577.567-.866.85-1.198.96a1.5 1.5 0 0 1-.903.011c-.336-.101-.631-.378-1.222-.93L16.1 18.847c-.565-.529-.847-.793-1.17-.896a1.5 1.5 0 0 0-.875-.01c-.325.094-.614.352-1.192.866l-2.256 2.01c-.591.527-.887.79-1.1 1.108-.188.28-.327.591-.412.919C9 23.213 9 23.61 9 24.401V25c0 1.4 0 2.1.273 2.635a2.5 2.5 0 0 0 1.092 1.092C10.9 29 11.6 29 13 29z" fill="#000"/></svg>