<svg width="40" height="32" viewBox="0 0 40 32" fill="none" xmlns="http://www.w3.org/2000/svg"><path d="M7.368 14.574c0-1.439.271-2.793.813-4.062a10.4 10.4 0 0 1 2.26-3.34 10.588 10.588 0 0 1 3.338-2.259 10.274 10.274 0 0 1 4.076-.812c1.447 0 2.8.27 4.062.812a10.549 10.549 0 0 1 3.352 2.26 10.4 10.4 0 0 1 2.26 3.339c.541 1.27.812 2.623.812 4.062 0 1.084-.161 2.116-.483 3.098a10.165 10.165 0 0 1-1.32 2.704l5.472 5.497c.203.212.355.444.457.698.11.263.165.542.165.838 0 .406-.093.775-.28 1.105a2.115 2.115 0 0 1-1.879 1.066c-.287 0-.566-.05-.837-.152a2.014 2.014 0 0 1-.724-.47l-5.522-5.522c-.796.507-1.663.91-2.603 1.206a9.873 9.873 0 0 1-2.932.431c-1.448 0-2.806-.27-4.076-.812A10.587 10.587 0 0 1 10.44 22a10.55 10.55 0 0 1-2.26-3.352 10.274 10.274 0 0 1-.812-4.075zm3.085 0c0 1.024.19 1.985.571 2.882a7.608 7.608 0 0 0 3.949 3.948c.897.381 1.857.572 2.882.572 1.024 0 1.98-.19 2.869-.572a7.564 7.564 0 0 0 2.361-1.6 7.43 7.43 0 0 0 1.587-2.348c.39-.897.584-1.858.584-2.882a7.04 7.04 0 0 0-.584-2.856 7.39 7.39 0 0 0-1.587-2.362 7.288 7.288 0 0 0-2.361-1.6 7.205 7.205 0 0 0-2.87-.57c-1.024 0-1.984.19-2.881.57a7.326 7.326 0 0 0-2.349 1.6 7.563 7.563 0 0 0-1.6 2.362 7.175 7.175 0 0 0-.57 2.856z" fill="#000"/></svg>