<svg width="40" height="40" fill="none" xmlns="http://www.w3.org/2000/svg"><rect width="40" height="40" rx="20" fill="#EFEFF4"/><path fill-rule="evenodd" clip-rule="evenodd" d="M13.087 11.913a.83.83 0 1 0-1.174 1.174l15 15a.83.83 0 0 0 1.174-1.174l-15-15zM8.5 20s1.425-2.493 4.168-4.504l3.066 3.067a4.5 4.5 0 0 0 5.703 5.703l2.169 2.168A11.699 11.699 0 0 1 20 27c-7.5 0-11.5-7-11.5-7zm8.25 0c0-.135.008-.267.024-.398l3.623 3.624A3.25 3.25 0 0 1 16.75 20zm2.852-3.226l3.624 3.623a3.25 3.25 0 0 0-3.623-3.623zM24.5 20c0 .503-.082.986-.234 1.437l3.066 3.067C30.075 22.494 31.5 20 31.5 20s-4-7-11.5-7c-1.31 0-2.512.213-3.606.566l2.169 2.168A4.5 4.5 0 0 1 24.5 20z" fill="#8E8E93"/></svg>