<svg width="40" height="40" fill="none" xmlns="http://www.w3.org/2000/svg"><rect width="40" height="40" rx="20" fill="#1C3567"/><path fill-rule="evenodd" clip-rule="evenodd" d="M16.035 14.62l2.779-5.422a1.298 1.298 0 0 1 2.305.009l2.624 5.23a1.43 1.43 0 0 0 1.114.775l5.495.646a1.344 1.344 0 0 1 1.19 1.488 1.332 1.332 0 0 1-.399.797L26.8 22.339a.768.768 0 0 0-.23.65l.722 5.665c.104.811-.48 1.551-1.304 1.653a1.523 1.523 0 0 1-.905-.169l-4.589-2.456a1.161 1.161 0 0 0-1.068-.013l-4.754 2.39a1.37 1.37 0 0 1-1.83-.585 1.321 1.321 0 0 1-.135-.8l.38-2.598a3.95 3.95 0 0 1 2.152-2.956l5.28-2.643a.28.28 0 0 0 .125-.379.288.288 0 0 0-.295-.151l-6.458.906a3.62 3.62 0 0 1-2.762-.753l-2.15-1.72a1.395 1.395 0 0 1-.21-1.983c.233-.28.565-.463.93-.51l5.514-.695c.354-.044.662-.259.822-.572z" fill="url(#paint0_linear_273_1387)"/><defs><linearGradient id="paint0_linear_273_1387" x1="20" y1="8.5" x2="26.727" y2="30.274" gradientUnits="userSpaceOnUse"><stop stop-color="#FFD147"/><stop offset="1" stop-color="#FFB526"/></linearGradient></defs></svg>