<svg fill="none" height="40" width="40" xmlns="http://www.w3.org/2000/svg"><rect fill="#000" height="40" rx="20" width="40"/><g clip-rule="evenodd" fill-rule="evenodd"><path d="m16.516 18.475h1.588c.253 0 .5 0 .745-.002h.022c.084 0 .172 0 .234-.113a4.3 4.3 0 0 1 -.057-.07 1.925 1.925 0 0 0 -.136-.16 409.897 409.897 0 0 0 -2.346-2.366l-.002-.003c-.88-.883-1.758-1.767-2.634-2.653a.452.452 0 0 0 -.354-.15c-2.167.004-4.334.004-6.501.004h-1.516l-.046-.001a.523.523 0 0 0 -.12.005c-.032.006-.062.021-.101.04l-.067.032.071.09c.043.055.08.102.122.144l1.82 1.835 3.2 3.228c.098.1.197.143.338.143 1.91-.004 3.82-.004 5.74-.003zm10.403 8.564h7.446c.075.002.15.002.224-.005a.526.526 0 0 0 .126-.035l.06-.021c-.039-.146-.13-.231-.217-.314l-.057-.055-1.854-1.868c-1.012-1.02-2.025-2.04-3.036-3.063a.496.496 0 0 0 -.387-.163c-2.052.004-4.103.004-6.154.004h-1.752c-.074-.001-.149-.002-.223.007-.036.004-.072.019-.116.037l-.079.031.065.087c.038.053.07.098.108.137.268.275.54.548.81.82v.001l.088.088 1.072 1.081.728.734.396.4.002.002.002.001c.662.668 1.324 1.335 1.985 2.004a.293.293 0 0 0 .23.091c.176-.002.351-.002.533-.001zm-9.563-3.61-2.369 2.39-.27.273c-.275.277-.55.554-.823.834a.353.353 0 0 1 -.277.115c-2.132-.002-4.265-.002-6.397-.002h-1.661a.713.713 0 0 1 -.142-.007c-.037-.006-.073-.021-.116-.04l-.072-.029.06-.082c.035-.049.065-.091.1-.128.297-.305.597-.607.897-.91l1.006-1.012c1.047-1.056 2.094-2.111 3.14-3.17a.455.455 0 0 1 .356-.145c2.09.003 4.18.003 6.27.003h1.671c.063-.002.125-.002.186.006a.65.65 0 0 1 .131.038c.026.01.054.02.086.03-.025.032-.047.06-.067.088-.039.052-.072.096-.11.135-.42.426-.842.85-1.268 1.28l-.331.334zm14.382-7.262.621-.626.193-.195.495-.498.291-.293 1.273-1.284.031-.031c.06-.057.119-.115.124-.202-.06-.085-.14-.08-.215-.077a.913.913 0 0 1 -.046.002l-2.762-.001c-1.776 0-3.552 0-5.327-.003a.368.368 0 0 0 -.291.12 186.56 186.56 0 0 1 -1.485 1.5l-.266.268-3.255 3.28a.606.606 0 0 0 -.112.123c-.029.043-.072.117-.056.14.03.042.096.066.152.078.049.01.1.009.151.007h1.682c2.104 0 4.207 0 6.311.003.15 0 .252-.048.354-.152.71-.72 1.42-1.437 2.137-2.159z" fill="#fefefe"/><path d="m17.347 13.465-2.389-2.405c-.104-.15-.08-.207.082-.217a.786.786 0 0 1 .092 0h9.72c.013 0 .026 0 .04-.002.03-.001.061-.003.09.005.044.012.103.032.118.066.015.03-.011.09-.036.127a.621.621 0 0 1 -.09.096 1.707 1.707 0 0 0 -.038.037l-1.06 1.066-2.346 2.362-.678.685-.703.71c-.128.128-.161.128-.287.003-.084-.082-.165-.166-.247-.25a30.696 30.696 0 0 0 -.17-.172l-2.097-2.111zm-.002 13.071-2.387 2.402c-.104.152-.08.208.082.218h9.813l.039.001c.03.002.061.004.09-.004.044-.012.103-.032.118-.066.015-.03-.011-.091-.036-.127-.025-.035-.057-.066-.09-.096a1.51 1.51 0 0 1 -.038-.037l-1.06-1.067-2.347-2.36-.678-.686-.703-.71c-.128-.128-.161-.128-.287-.003-.084.082-.165.166-.247.25l-.17.172-2.1 2.113z" fill="#449afa"/></g></svg>