<svg fill="none" height="28" viewBox="0 0 28 28" width="28" xmlns="http://www.w3.org/2000/svg"><path clip-rule="evenodd" d="m14 25c6.0751 0 11-4.9249 11-11 0-6.07513-4.9249-11-11-11-6.07513 0-11 4.92487-11 11 0 6.0751 4.92487 11 11 11zm-3.4343-10.5657c-.3124-.3124-.81897-.3124-1.13139 0-.31241.3124-.31241.819 0 1.1314l3.99999 4c.3124.3124.819.3124 1.1314 0l4-4c.3124-.3124.3124-.819 0-1.1314s-.819-.3124-1.1314 0l-2.6343 2.6343v-7.5686c0-.44183-.3582-.8-.8-.8s-.8.35817-.8.8v7.5686z" fill="#000" fill-rule="evenodd"/></svg>