<svg fill="none" height="36" viewBox="0 0 37 36" width="37" xmlns="http://www.w3.org/2000/svg"><path clip-rule="evenodd" d="m18.7498 32.1429c7.8109 0 14.1428-6.332 14.1428-14.1429s-6.3319-14.14285-14.1428-14.14285-14.14287 6.33195-14.14287 14.14285 6.33197 14.1429 14.14287 14.1429zm4.4155-14.0584c.4017.4016 1.053.4016 1.4547 0 .4016-.4017.4016-1.053 0-1.4547l-5.1429-5.1428c-.4017-.4017-1.0529-.4017-1.4546 0l-5.1429 5.1428c-.4017.4017-.4017 1.053 0 1.4547.4017.4016 1.053.4016 1.4546 0l3.387-3.387v9.7311c0 .568.4605 1.0285 1.0286 1.0285s1.0286-.4605 1.0286-1.0285v-9.7311z" fill="#000" fill-rule="evenodd"/></svg>