<svg fill="none" height="28" viewBox="0 0 28 28" width="28" xmlns="http://www.w3.org/2000/svg"><path clip-rule="evenodd" d="M12.7796 3.2594C11.8891 3.6558 11.207 4.8372 9.84289 7.2L3.43429 18.3C2.07015 20.6628 1.38807 21.8442 1.48996 22.8136C1.57883 23.6592 2.02232 24.4273 2.71017 24.9271C3.49877 25.5 4.86291 25.5 7.59121 25.5H20.4084C23.1367 25.5 24.5008 25.5 25.2894 24.9271C25.9773 24.4273 26.4208 23.6592 26.5096 22.8136C26.6115 21.8442 25.9295 20.6628 24.5653 18.3L18.1567 7.2C16.7926 4.8372 16.1105 3.6558 15.22 3.2594C14.4433 2.9136 13.5563 2.9136 12.7796 3.2594ZM15.0808 10.5998L14.967 17.0501C14.9577 17.5774 14.5276 18 14.0002 18C13.4728 18 13.0427 17.5774 13.0334 17.0501L12.9196 10.5998C12.9089 9.9956 13.3958 9.5 14.0002 9.5C14.6045 9.5 15.0915 9.9956 15.0808 10.5998ZM15.2498 20.5C15.2498 21.1904 14.6902 21.75 13.9998 21.75C13.3094 21.75 12.7498 21.1904 12.7498 20.5C12.7498 19.8096 13.3094 19.25 13.9998 19.25C14.6902 19.25 15.2498 19.8096 15.2498 20.5Z" fill="#000" fill-rule="evenodd"/></svg>
