<svg fill="none" height="24" viewBox="0 0 24 24" width="24" xmlns="http://www.w3.org/2000/svg"><path clip-rule="evenodd" d="m6.14319 2.72144h.02825 1.37143.02825.00001.00002c.45597-.00001.84039-.00002 1.15524.0257.32959.02693.6447.08554.94435.23822.45566.23215.82606.60258 1.05816 1.0582.1527.29966.2113.61476.2383.94435.0257.31486.0257.6993.0257 1.15529v.02824 1.37143.02824c0 .45598 0 .84042-.0257 1.15528-.027.32959-.0856.6447-.2383.94435-.2321.45566-.6025.82606-1.05816 1.05816-.29965.1527-.61476.2113-.94435.2383-.31486.0257-.6993.0257-1.15528.0257h-.02824-1.37143-.02825c-.45598 0-.84042 0-1.15528-.0257-.32959-.027-.64469-.0856-.94435-.2383-.45562-.2321-.82605-.6025-1.0582-1.05816-.15269-.29965-.21129-.61476-.23822-.94435-.02572-.31485-.02571-.69927-.0257-1.15524v-.00002-.00001-.02825-1.37143-.02826-.00002c-.00001-.45597-.00002-.8404.0257-1.15525.02693-.32959.08554-.64469.23822-.94435.23215-.45562.60258-.82605 1.0582-1.0582.29966-.15269.61476-.21129.94435-.23822.31485-.02572.69928-.02571 1.15524-.0257h.00002zm-1.04011 1.43529c-.24213.01978-.3504.0546-.41745.08876-.1895.09656-.34358.25064-.44014.44014-.03416.06705-.06898.17532-.08876.41745-.02046.25039-.02101.57664-.02101 1.06836v1.37143c0 .49171.00055.81797.02101 1.06835.01978.24213.0546.3504.08876.41745.09656.18951.25064.34358.44014.44014.06705.03416.17532.06898.41745.08876.25039.02046.57664.02101 1.06836.02101h1.37143c.49171 0 .81797-.00055 1.06835-.02101.24213-.01978.3504-.0546.41745-.08876.18951-.09656.34358-.25063.44014-.44014.03416-.06705.06898-.17532.08876-.41745.02046-.25038.02101-.57664.02101-1.06835v-1.37143c0-.49172-.00055-.81797-.02101-1.06836-.01978-.24213-.0546-.3504-.08876-.41745-.09656-.1895-.25063-.34358-.44014-.44014-.06705-.03416-.17532-.06898-.41745-.08876-.25038-.02046-.57664-.02101-1.06835-.02101h-1.37143c-.49172 0-.81797.00055-1.06836.02101zm.68264 2.31471c0-.24003 0-.36004.04671-.45171.04109-.08064.10666-.14621.1873-.1873.09167-.04671.21168-.04671.45171-.04671h.77143c.24002 0 .36003 0 .45171.04671.08064.04109.1462.10666.18729.1873.04671.09167.04671.21168.04671.45171v.77143c0 .24002 0 .36003-.04671.45171-.04109.08064-.10665.1462-.18729.18729-.09168.04671-.21169.04671-.45171.04671h-.77143c-.24003 0-.36004 0-.45171-.04671-.08064-.04109-.14621-.10665-.1873-.18729-.04671-.09168-.04671-.21169-.04671-.45171zm.35747 6.53566h.02825 1.37143.02825.00003.00003c.45595 0 .84037 0 1.15521.0258.32959.0269.6447.0855.94435.2382.45566.2321.82606.6026 1.05816 1.0582.1527.2996.2113.6147.2383.9443.0257.3149.0257.6993.0257 1.1553v.0283 1.3714.0282c0 .456 0 .8404-.0257 1.1553-.027.3296-.0856.6447-.2383.9444-.2321.4556-.6025.826-1.05816 1.0582-.29965.1526-.61476.2112-.94435.2382-.31483.0257-.69923.0257-1.15517.0257h-.00008-.00003-.02824-1.37143-.02825-.00003-.00008c-.45594 0-.84034 0-1.15517-.0257-.32959-.027-.64469-.0856-.94435-.2382-.45562-.2322-.82605-.6026-1.0582-1.0582-.15269-.2997-.21129-.6148-.23822-.9444-.02572-.3148-.02571-.6993-.0257-1.1552v-.0001-.0282-1.3715-.0282c-.00001-.456-.00002-.8404.0257-1.1553.02693-.3296.08554-.6447.23822-.9443.23215-.4556.60258-.8261 1.0582-1.0582.29966-.1527.61476-.2113.94435-.2382.31484-.0258.69926-.0258 1.15521-.0258h.00003zm-1.04011 1.4353c-.24213.0198-.3504.0546-.41745.0888-.1895.0966-.34358.2506-.44014.4401-.03416.0671-.06898.1754-.08876.4175-.02046.2504-.02101.5766-.02101 1.0683v1.3715c0 .4917.00055.8179.02101 1.0683.01978.2422.0546.3504.08876.4175.09656.1895.25064.3436.44014.4401.06705.0342.17532.069.41745.0888.25039.0204.57664.021 1.06836.021h1.37143c.49171 0 .81797-.0006 1.06835-.021.24213-.0198.3504-.0546.41745-.0888.18951-.0965.34358-.2506.44014-.4401.03416-.0671.06898-.1753.08876-.4175.02046-.2504.02101-.5766.02101-1.0683v-1.3714c0-.4918-.00055-.818-.02101-1.0684-.01978-.2421-.0546-.3504-.08876-.4175-.09656-.1895-.25063-.3435-.44014-.4401-.06705-.0342-.17532-.069-.41745-.0888-.25038-.0204-.57664-.021-1.06835-.021h-1.37143c-.49172 0-.81797.0006-1.06836.021zm.68264 2.3147c0-.24 0-.36.04671-.4517.04109-.0806.10666-.1462.1873-.1873.09167-.0467.21168-.0467.45171-.0467h.77143c.24002 0 .36003 0 .45171.0467.08064.0411.1462.1067.18729.1873.04671.0917.04671.2117.04671.4517v.7715c0 .24 0 .36-.04671.4517-.04109.0806-.10665.1462-.18729.1873-.09168.0467-.21169.0467-.45171.0467h-.77143c-.24003 0-.36004 0-.45171-.0467-.08064-.0411-.14621-.1067-.1873-.1873-.04671-.0917-.04671-.2117-.04671-.4517zm7.71428-2.5714c0-.24 0-.36.0467-.4517.0411-.0806.1067-.1462.1873-.1873.0917-.0467.2117-.0467.4517-.0467h.7714c.2401 0 .3601 0 .4518.0467.0806.0411.1462.1067.1873.1873.0467.0917.0467.2117.0467.4517v.7714c0 .2401 0 .3601-.0467.4518-.0411.0806-.1067.1462-.1873.1873-.0917.0467-.2117.0467-.4518.0467h-.7714c-.24 0-.36 0-.4517-.0467-.0806-.0411-.1462-.1067-.1873-.1873-.0467-.0917-.0467-.2117-.0467-.4518zm2.5714 2.5714c0-.24 0-.36.0467-.4517.0411-.0806.1067-.1462.1873-.1873.0917-.0467.2117-.0467.4517-.0467h.7715c.24 0 .36 0 .4517.0467.0806.0411.1462.1067.1873.1873.0467.0917.0467.2117.0467.4517v.7715c0 .24 0 .36-.0467.4517-.0411.0806-.1067.1462-.1873.1873-.0917.0467-.2117.0467-.4517.0467h-.7715c-.24 0-.36 0-.4517-.0467-.0806-.0411-.1462-.1067-.1873-.1873-.0467-.0917-.0467-.2117-.0467-.4517zm-2.5247 2.1198c-.0467.0916-.0467.2117-.0467.4517v.7714c0 .24 0 .36.0467.4517.0411.0807.1067.1462.1873.1873.0917.0467.2117.0467.4517.0467h.7714c.2401 0 .3601 0 .4518-.0467.0806-.0411.1462-.1066.1873-.1873.0467-.0917.0467-.2117.0467-.4517v-.7714c0-.24 0-.3601-.0467-.4517-.0411-.0807-.1067-.1462-.1873-.1873-.0917-.0467-.2117-.0467-.4518-.0467h-.7714c-.24 0-.36 0-.4517.0467-.0806.0411-.1462.1066-.1873.1873zm5.0962-4.6912c0-.24 0-.36.0467-.4517.0411-.0806.1066-.1462.1873-.1873.0916-.0467.2117-.0467.4517-.0467h.7714c.24 0 .36 0 .4517.0467.0807.0411.1462.1067.1873.1873.0467.0917.0467.2117.0467.4517v.7714c0 .2401 0 .3601-.0467.4518-.0411.0806-.1066.1462-.1873.1873-.0917.0467-.2117.0467-.4517.0467h-.7714c-.24 0-.3601 0-.4517-.0467-.0807-.0411-.1462-.1067-.1873-.1873-.0467-.0917-.0467-.2117-.0467-.4518zm.0467 4.6912c-.0467.0916-.0467.2117-.0467.4517v.7714c0 .24 0 .36.0467.4517.0411.0807.1066.1462.1873.1873.0916.0467.2117.0467.4517.0467h.7714c.24 0 .36 0 .4517-.0467.0807-.0411.1462-.1066.1873-.1873.0467-.0917.0467-.2117.0467-.4517v-.7714c0-.24 0-.3601-.0467-.4517-.0411-.0807-.1066-.1462-.1873-.1873-.0917-.0467-.2117-.0467-.4517-.0467h-.7714c-.24 0-.3601 0-.4517.0467-.0807.0411-.1462.1066-.1873.1873zm-2.2607-16.15546h.0283 1.3714.0282.0001c.4559-.00001.8404-.00002 1.1552.0257.3296.02693.6447.08554.9444.23822.4556.23215.826.60258 1.0582 1.0582.1526.29966.2112.61476.2382.94435.0257.31483.0257.69923.0257 1.15517v.00008.00004.02824 1.37143.02824.00004.00008c0 .45593 0 .84033-.0257 1.15516-.027.32959-.0856.6447-.2382.94435-.2322.45566-.6026.82606-1.0582 1.05816-.2997.1527-.6148.2113-.9444.2383-.3149.0257-.6993.0257-1.1553.0257h-.0282-1.3715-.0282c-.456 0-.8404 0-1.1553-.0257-.3296-.027-.6447-.0856-.9443-.2383-.4556-.2321-.8261-.6025-1.0582-1.05816-.1527-.29965-.2113-.61476-.2382-.94435-.0258-.31484-.0258-.69926-.0258-1.15521v-.00003-.00003-.02825-1.37143-.02826-.00003-.00002c0-.45596 0-.84038.0258-1.15522.0269-.32959.0855-.64469.2382-.94435.2321-.45562.6026-.82605 1.0582-1.0582.2996-.15269.6147-.21129.9443-.23822.3149-.02572.6993-.02571 1.1553-.0257zm-1.0401 1.43529c-.2421.01978-.3504.0546-.4175.08876-.1895.09656-.3435.25064-.4401.44014-.0342.06705-.069.17532-.0888.41745-.0204.25039-.021.57664-.021 1.06836v1.37143c0 .49171.0006.81797.021 1.06835.0198.24213.0546.3504.0888.41745.0966.18951.2506.34358.4401.44014.0671.03416.1754.06898.4175.08876.2504.02046.5766.02101 1.0683.02101h1.3715c.4917 0 .8179-.00055 1.0683-.02101.2422-.01978.3504-.0546.4175-.08876.1895-.09656.3436-.25063.4401-.44014.0342-.06705.069-.17532.0888-.41745.0204-.25038.021-.57664.021-1.06835v-1.37143c0-.49172-.0006-.81797-.021-1.06836-.0198-.24213-.0546-.3504-.0888-.41745-.0965-.1895-.2506-.34358-.4401-.44014-.0671-.03416-.1753-.06898-.4175-.08876-.2504-.02046-.5766-.02101-1.0683-.02101h-1.3714c-.4918 0-.818.00055-1.0684.02101zm.6826 2.31471c0-.24003 0-.36004.0467-.45171.0411-.08064.1067-.14621.1873-.1873.0917-.04671.2117-.04671.4517-.04671h.7715c.24 0 .36 0 .4517.04671.0806.04109.1462.10666.1873.1873.0467.09167.0467.21168.0467.45171v.77143c0 .24002 0 .36003-.0467.45171-.0411.08064-.1067.1462-.1873.18729-.0917.04671-.2117.04671-.4517.04671h-.7715c-.24 0-.36 0-.4517-.04671-.0806-.04109-.1462-.10665-.1873-.18729-.0467-.09168-.0467-.21169-.0467-.45171z" fill="#fff" fill-rule="evenodd"/></svg>